<svg width="211" height="35" viewBox="0 0 211 35" fill="none" xmlns="http://www.w3.org/2000/svg">
<g clip-path="url(#clip0_269_1782)">
<path fill-rule="evenodd" clip-rule="evenodd" d="M188.172 0.000366211H195.612C195.758 0.130119 197.293 2.61563 200.212 7.4558C206.116 17.2041 209.19 22.2998 209.444 22.742V22.7846H200.845C200.643 22.5817 197.986 18.2407 192.887 9.74576C192.261 8.72318 191.935 8.21593 191.903 8.21593C186.164 17.7184 183.208 22.5747 183.051 22.7842H174.416V22.6762C183.251 8.05641 187.837 0.500262 188.172 0.000366211Z" fill="white"/>
<path fill-rule="evenodd" clip-rule="evenodd" d="M148.369 0.000367369H156.963C157.224 0.281559 158.184 1.84814 159.844 4.69461C159.97 4.84715 161.979 8.14389 165.859 14.5867H165.904C171.707 4.99197 174.662 0.129752 174.759 0H183.402C183.402 0.144088 181.197 3.79664 176.79 10.9551C173.356 16.6745 170.969 20.6181 169.613 22.7846H162.129C161.765 22.2762 157.253 14.8109 148.585 0.40543C148.526 0.40543 148.452 0.269061 148.369 0.000367369Z" fill="white"/>
<path fill-rule="evenodd" clip-rule="evenodd" d="M118.165 0.000366211H142.817C145.051 0.000366211 147.008 0.832913 148.683 2.50683C149.703 3.65181 150.21 4.89052 150.21 6.22517V10.3394C150.21 12.4775 149.003 14.2452 146.593 15.6453L145.654 16.0503L150.21 22.7423L150.098 22.785H141.245C141.023 22.5449 139.579 20.4586 136.906 16.5234H125.537V22.6769C125.537 22.7486 125.499 22.785 125.433 22.785H118.166C118.093 22.785 118.062 22.7486 118.062 22.6769V0.108432C118.068 0.0360208 118.107 0.000366211 118.165 0.000366211ZM125.536 5.41247V11.1006H139.742C141.251 11.1006 142.213 10.4629 142.615 9.17309C142.676 8.87462 142.704 8.58608 142.704 8.30452C142.704 6.92723 142.116 6.01419 140.941 5.56501C140.573 5.46246 140.203 5.41284 139.823 5.41284H125.536V5.41247Z" fill="white"/>
<path fill-rule="evenodd" clip-rule="evenodd" d="M52.4348 0.000366211H59.7018C59.769 0.0147015 59.8045 0.050356 59.8045 0.108432V8.91947H76.9732V0.108432C76.988 0.0356532 77.0239 0.000366211 77.0835 0.000366211H84.3675C84.4412 0.0147015 84.477 0.050356 84.477 0.108432V22.6765C84.477 22.7482 84.4415 22.7846 84.3675 22.7846H77.0835C77.0099 22.7846 76.9732 22.7482 76.9732 22.6765V13.8596H59.8045V22.6765C59.8045 22.7482 59.769 22.7846 59.7018 22.7846H52.4348C52.3593 22.7846 52.3295 22.7482 52.3295 22.6765V0.108432C52.34 0.0360208 52.3744 0.000366211 52.4348 0.000366211Z" fill="white"/>
<path fill-rule="evenodd" clip-rule="evenodd" d="M26.593 0.000366211H58.5246C58.6001 0.0147015 58.6356 0.050356 58.6356 0.108432V5.31066C58.6356 5.37609 58.6001 5.41211 58.5246 5.41211H46.3375V22.6765C46.3375 22.7482 46.3001 22.7846 46.2257 22.7846H38.9368C38.87 22.7846 38.8326 22.7482 38.8326 22.6765V5.41247H26.593C26.5182 5.41247 26.488 5.37608 26.488 5.31103V0.108432C26.4948 0.0360208 26.5334 0.000366211 26.593 0.000366211Z" fill="white"/>
<path fill-rule="evenodd" clip-rule="evenodd" d="M13.7582 0.000462532H21.1952C21.3455 0.130215 22.8789 2.61573 25.798 7.45589C31.7012 17.2042 34.7755 22.2999 35.0285 22.742V22.7847H27.0538H26.4291H18.9162C17.7435 22.7847 17.5925 21.9374 18.0596 21.1225L21.6155 14.9698C20.6959 13.4488 19.647 11.7083 18.4709 9.74623C17.844 8.72364 17.5162 8.2164 17.4867 8.2164C11.7471 17.7188 8.79207 22.5752 8.63571 22.7851H0V22.677C8.83664 8.0565 13.4228 0.500358 13.7582 0.000462532Z" fill="#E4322A"/>
<path fill-rule="evenodd" clip-rule="evenodd" d="M97.7367 0.000366211H105.176C105.324 0.130119 106.858 2.61563 109.776 7.4558C115.679 17.2041 118.755 22.2998 119.006 22.742V22.7846H111.032H110.408H102.896C101.725 22.7846 101.571 21.9373 102.04 21.1224L105.595 14.9697C104.677 13.4487 103.629 11.7082 102.45 9.74613C101.827 8.72355 101.498 8.2163 101.467 8.2163C95.7271 17.7187 92.7713 22.5751 92.6161 22.7846H83.9781V22.6765C92.817 8.05641 97.4017 0.500262 97.7367 0.000366211Z" fill="white"/>
<path fill-rule="evenodd" clip-rule="evenodd" d="M188.172 0.000366211H195.612C195.758 0.130119 197.293 2.61563 200.212 7.4558C206.116 17.2041 209.19 22.2998 209.444 22.742V22.7846H201.47H200.845H193.332C192.162 22.7846 192.006 21.9373 192.477 21.1224L196.029 14.9697C195.112 13.4487 194.064 11.7082 192.887 9.74613C192.26 8.72355 191.935 8.2163 191.903 8.2163C186.164 17.7187 183.208 22.5751 183.05 22.7846H174.415V22.6765C183.251 8.05641 187.837 0.500262 188.172 0.000366211Z" fill="white"/>
<path d="M173.209 32.5065C173.115 32.6814 172.992 32.8307 172.837 32.9549C172.681 33.0788 172.499 33.1718 172.285 33.2379C172.072 33.3019 171.842 33.3353 171.594 33.3353C171.241 33.3353 170.882 33.2714 170.52 33.1449C170.159 33.0196 169.838 32.8457 169.559 32.6325L169.929 32.1227C170.197 32.3201 170.474 32.4708 170.762 32.5748C171.051 32.68 171.34 32.7321 171.632 32.7321C171.93 32.7321 172.174 32.6652 172.365 32.5292C172.555 32.3932 172.65 32.208 172.65 31.9716V31.9558C172.65 31.8382 172.618 31.7342 172.55 31.65C172.485 31.5629 172.393 31.4861 172.28 31.4221C172.165 31.3567 172.034 31.3016 171.883 31.2512C171.736 31.2034 171.581 31.1553 171.423 31.1126C171.233 31.0575 171.041 30.9979 170.848 30.9314C170.655 30.8671 170.479 30.7859 170.323 30.6877C170.168 30.5888 170.042 30.4642 169.944 30.3161C169.844 30.1676 169.796 29.9816 169.796 29.76V29.7423C169.796 29.5369 169.837 29.3527 169.918 29.1825C170.003 29.0123 170.117 28.8679 170.268 28.7473C170.415 28.6253 170.592 28.5327 170.8 28.4698C171.005 28.4029 171.23 28.3731 171.471 28.3731C171.774 28.3731 172.082 28.4176 172.392 28.5154C172.703 28.6106 172.985 28.7378 173.24 28.8995L172.907 29.4369C172.678 29.2928 172.439 29.1825 172.189 29.098C171.937 29.0153 171.693 28.9726 171.451 28.9726C171.159 28.9726 170.928 29.041 170.756 29.1715C170.586 29.306 170.499 29.47 170.499 29.667V29.6865C170.499 29.7982 170.534 29.8945 170.605 29.9772C170.674 30.0614 170.766 30.1323 170.886 30.1941C171.002 30.2577 171.137 30.3121 171.29 30.3617C171.442 30.4109 171.601 30.4606 171.765 30.5109C171.954 30.5653 172.144 30.6267 172.331 30.6962C172.516 30.7645 172.687 30.8498 172.84 30.9538C172.992 31.0597 173.114 31.1872 173.208 31.3339C173.299 31.4831 173.345 31.6658 173.345 31.8786V31.8992C173.347 32.1279 173.3 32.3289 173.209 32.5065Z" fill="white"/>
<path d="M178.875 33.3989C178.665 33.8933 178.432 34.2421 178.175 34.4458C177.917 34.649 177.606 34.7519 177.238 34.7519C177.036 34.7519 176.852 34.731 176.686 34.6917C176.52 34.652 176.357 34.5906 176.192 34.5104L176.439 33.944C176.561 34.0076 176.679 34.0517 176.794 34.0808C176.912 34.1076 177.05 34.1216 177.21 34.1216C177.431 34.1216 177.619 34.0565 177.77 33.9282C177.922 33.7981 178.072 33.5636 178.218 33.2239L175.983 28.4555H176.79L178.58 32.4451L180.158 28.4555H180.939L178.875 33.3989Z" fill="white"/>
<path d="M187.063 32.5065C186.971 32.6814 186.848 32.8307 186.692 32.9549C186.537 33.0788 186.353 33.1718 186.141 33.2379C185.927 33.3019 185.698 33.3353 185.452 33.3353C185.095 33.3353 184.737 33.2714 184.375 33.1449C184.013 33.0196 183.694 32.8457 183.414 32.6325L183.786 32.1227C184.051 32.3201 184.33 32.4708 184.619 32.5748C184.906 32.68 185.196 32.7321 185.49 32.7321C185.787 32.7321 186.031 32.6652 186.222 32.5292C186.412 32.3932 186.507 32.208 186.507 31.9716V31.9558C186.507 31.8382 186.474 31.7342 186.406 31.65C186.339 31.5629 186.25 31.4861 186.136 31.4221C186.021 31.3567 185.89 31.3016 185.741 31.2512C185.592 31.2034 185.438 31.1553 185.279 31.1126C185.089 31.0575 184.896 30.9979 184.703 30.9314C184.509 30.8671 184.335 30.7859 184.18 30.6877C184.026 30.5888 183.897 30.4642 183.799 30.3161C183.702 30.1676 183.651 29.9816 183.651 29.76V29.7423C183.651 29.5369 183.693 29.3527 183.775 29.1825C183.858 29.0123 183.973 28.8679 184.123 28.7473C184.272 28.6253 184.449 28.5327 184.656 28.4698C184.862 28.4029 185.087 28.3731 185.326 28.3731C185.631 28.3731 185.939 28.4176 186.249 28.5154C186.56 28.6106 186.842 28.7378 187.096 28.8995L186.763 29.4369C186.534 29.2928 186.296 29.1825 186.044 29.098C185.794 29.0153 185.549 28.9726 185.306 28.9726C185.016 28.9726 184.783 29.041 184.612 29.1715C184.442 29.306 184.355 29.47 184.355 29.667V29.6865C184.355 29.7982 184.391 29.8945 184.459 29.9772C184.529 30.0614 184.622 30.1323 184.741 30.1941C184.859 30.2577 184.992 30.3121 185.144 30.3617C185.296 30.4109 185.456 30.4606 185.62 30.5109C185.812 30.5653 186 30.6267 186.188 30.6962C186.374 30.7645 186.544 30.8498 186.696 30.9538C186.848 31.0597 186.97 31.1872 187.062 31.3339C187.155 31.4831 187.2 31.6658 187.2 31.8786V31.8992C187.201 32.1279 187.156 32.3289 187.063 32.5065Z" fill="white"/>
<path d="M191.369 31.879C191.369 32.176 191.446 32.3837 191.599 32.5017C191.75 32.6178 191.951 32.6774 192.197 32.6774C192.324 32.6774 192.444 32.6652 192.554 32.6399C192.666 32.6167 192.784 32.5715 192.912 32.5101V33.121C192.784 33.1887 192.65 33.239 192.506 33.2747C192.364 33.3074 192.205 33.3254 192.026 33.3254C191.83 33.3254 191.646 33.3 191.474 33.2523C191.304 33.2012 191.155 33.124 191.031 33.0148C190.909 32.9067 190.813 32.7674 190.741 32.5939C190.673 32.4208 190.637 32.2139 190.637 31.9716V29.0847H189.952V28.4551H190.637V27.0091H191.369V28.4551H192.93V29.0847H191.369V31.879Z" fill="white"/>
<path d="M196.632 31.8037C196.733 32.0025 196.863 32.172 197.023 32.312C197.181 32.4499 197.361 32.5561 197.556 32.6267C197.752 32.6972 197.958 32.7318 198.175 32.7318C198.516 32.7318 198.809 32.67 199.055 32.5476C199.299 32.4238 199.521 32.2591 199.725 32.0562L200.181 32.4557C199.933 32.7259 199.652 32.9431 199.336 33.1078C199.018 33.2706 198.624 33.3533 198.154 33.3533C197.818 33.3533 197.503 33.292 197.204 33.1714C196.906 33.0527 196.645 32.881 196.42 32.6623C196.198 32.4429 196.021 32.1801 195.888 31.872C195.756 31.5625 195.691 31.2244 195.691 30.8524C195.691 30.5072 195.75 30.1816 195.868 29.8761C195.986 29.5707 196.146 29.3064 196.357 29.0792C196.566 28.8558 196.815 28.676 197.105 28.5477C197.393 28.418 197.708 28.3529 198.05 28.3529C198.412 28.3529 198.735 28.4183 199.021 28.5532C199.308 28.6837 199.547 28.8679 199.744 29.0939C199.942 29.3229 200.089 29.5909 200.191 29.8997C200.293 30.2084 200.343 30.5378 200.343 30.8899C200.343 30.9219 200.343 30.9542 200.343 30.9906C200.343 31.0296 200.34 31.0685 200.334 31.1126H196.443C196.468 31.3714 196.531 31.6008 196.632 31.8037ZM199.592 30.5841C199.572 30.3687 199.526 30.1614 199.455 29.9636C199.382 29.7655 199.283 29.5942 199.152 29.445C199.022 29.2976 198.864 29.1777 198.679 29.0884C198.494 28.9991 198.277 28.9554 198.031 28.9554C197.817 28.9554 197.618 28.9958 197.436 29.0789C197.253 29.1616 197.091 29.2766 196.952 29.4222C196.815 29.5681 196.701 29.739 196.612 29.9353C196.525 30.1323 196.469 30.3496 196.443 30.5844H199.592V30.5841Z" fill="white"/>
<path d="M207.743 28.9355C207.854 28.8197 207.979 28.7168 208.119 28.6315C208.259 28.5448 208.415 28.4768 208.589 28.4272C208.763 28.3779 208.959 28.3525 209.175 28.3525C209.745 28.3525 210.192 28.5249 210.517 28.8675C210.839 29.209 211 29.6806 211 30.2786V33.2416H210.267V30.4444C210.267 29.9816 210.155 29.6251 209.93 29.3759C209.704 29.1252 209.393 29.0009 208.994 29.0009C208.81 29.0009 208.636 29.0344 208.469 29.0983C208.304 29.1619 208.161 29.2586 208.037 29.385C207.914 29.5122 207.816 29.6673 207.743 29.8533C207.669 30.0375 207.632 30.2466 207.632 30.483V33.2416H206.91V30.4271C206.91 29.9761 206.797 29.6247 206.573 29.3759C206.346 29.1252 206.038 29.0009 205.643 29.0009C205.448 29.0009 205.267 29.0384 205.102 29.1123C204.936 29.1873 204.793 29.2906 204.669 29.4277C204.546 29.5633 204.449 29.7214 204.378 29.9055C204.309 30.086 204.274 30.2874 204.274 30.5113V33.242H203.541V28.4551H204.274V29.2615C204.357 29.1435 204.447 29.0292 204.546 28.9179C204.643 28.8057 204.755 28.7091 204.884 28.6249C205.01 28.5422 205.153 28.4764 205.312 28.4268C205.471 28.3775 205.654 28.3522 205.863 28.3522C206.263 28.3522 206.593 28.4444 206.853 28.6249C207.113 28.8069 207.31 29.0344 207.442 29.306C207.531 29.1781 207.632 29.0535 207.743 28.9355Z" fill="white"/>
</g>
<defs>
<clipPath id="clip0_269_1782">
<rect width="211" height="35" fill="white"/>
</clipPath>
</defs>
</svg>
