<svg width="100" height="100" viewBox="0 0 100 100" fill="none" xmlns="http://www.w3.org/2000/svg">
<g clip-path="url(#clip0_480_18)">
<rect width="100" height="100" rx="8" fill="#FCC253"/>
<path d="M26.4523 54.5186C25.0291 54.0692 24.8793 52.4962 25.4036 50.6237L39.2607 16.1309C40.5715 14.4082 42.7437 13.4719 44.9907 14.2209L80.8318 21.7487C88.734 23.6213 86.2997 28.8645 85.5881 30.9618L70.5326 69.0499L65.5743 79.9901L65.0594 80.8911C60.8648 87.7073 51.0204 85.6409 48.1741 84.0305L18.55 71.2595C14.2056 68.4881 12.2207 62.421 13.6439 55.0056L34.1673 63.582C38.5491 65.08 47.8371 67.6867 48.1367 67.6267C46.6386 72.3082 47.8371 75.8661 50.2339 76.8772C57.2748 81.334 60.4582 74.1058 61.3945 72.3831L64.2782 66.4657L79.8206 28.8645L42.8186 19.6514L30.0476 51.8596C29.6356 52.8333 28.7368 55.5672 26.4523 54.5186Z" fill="#1C1C1C"/>
<path d="M42.9684 52.796C42.9684 54.9471 41.2245 56.6909 39.0734 56.6909C36.9223 56.6909 35.1785 54.9471 35.1785 52.796C35.1785 50.6448 36.9223 48.901 39.0734 48.901C41.2245 48.901 42.9684 50.6448 42.9684 52.796Z" fill="#1C1C1C"/>
<path d="M46.5637 41.8601C46.5637 44.0112 44.8199 45.7551 42.6687 45.7551C40.5176 45.7551 38.7738 44.0112 38.7738 41.8601C38.7738 39.709 40.5176 37.9652 42.6687 37.9652C44.8199 37.9652 46.5637 39.709 46.5637 41.8601Z" fill="#1C1C1C"/>
<path d="M53.0428 42.2346L66.75 45.9423L63.8288 50.7736L50.1216 46.9161L53.0428 42.2346Z" fill="#1C1C1C"/>
<path d="M56.7505 31.149L70.4577 34.8567L67.5365 39.6879L53.8293 35.8304L56.7505 31.149Z" fill="#1C1C1C"/>
<path d="M47.5374 53.3203L61.2447 57.028L58.3235 61.8592L44.6162 58.0017L47.5374 53.3203Z" fill="#1C1C1C"/>
<path d="M42.7269 28.4244C42.5336 27.7707 42.9068 27.0842 43.5604 26.8909C44.2141 26.6976 44.9006 27.0708 45.0939 27.7245L46.5498 32.6482C46.7431 33.3019 46.3699 33.9884 45.7162 34.1817C45.0626 34.375 44.3761 34.0018 44.1828 33.3481L42.7269 28.4244Z" fill="#1C1C1C"/>
<path d="M45.9435 34.1737C45.3356 34.4737 44.5995 34.2242 44.2995 33.6162C43.9995 33.0083 44.249 32.2723 44.8569 31.9723L53.2187 27.8452C53.8266 27.5452 54.5626 27.7948 54.8626 28.4027C55.1627 29.0106 54.9131 29.7466 54.3052 30.0466L45.9435 34.1737Z" fill="#1C1C1C"/>
</g>
<defs>
<clipPath id="clip0_480_18">
<rect width="100" height="100" rx="8" fill="white"/>
</clipPath>
</defs>
</svg>
