<svg width="100" height="100" viewBox="0 0 100 100" fill="none" xmlns="http://www.w3.org/2000/svg">
<rect width="100" height="100" rx="8" fill="url(#paint0_linear_480_95)"/>
<path d="M22.6373 44.0297L20.001 65.8534L16.0399 65.3756L18.6762 43.5519L22.6373 44.0297Z" fill="white"/>
<path d="M24.2904 66.3708L26.9266 44.5471L35.1264 45.5362C36.8062 45.7388 38.1777 46.2214 39.2411 46.9839C40.3115 47.7473 41.0725 48.7112 41.524 49.8756C41.9835 51.0338 42.1296 52.3055 41.9622 53.6908C41.7932 55.0903 41.3476 56.2979 40.6255 57.3136C39.9034 58.3292 38.9281 59.0801 37.6995 59.5662C36.4717 60.0451 35.0144 60.1829 33.3275 59.9794L27.893 59.3239L28.2856 56.0738L31.4088 51.6187C32.3911 51.7371 30.8272 51.6337 31.4948 51.3683C32.1623 51.1028 31.0378 52.1793 31.4088 51.6187C31.787 51.0588 31.4012 52.1426 31.4948 51.3683C31.5883 50.5939 31.7296 51.9948 31.4948 51.3683C31.267 50.7426 32.0888 51.7715 31.4948 51.3683C30.9087 50.9588 32.4841 51.4876 31.4948 51.3683L30.4887 48.3283L28.2514 66.8486L24.2904 66.3708Z" fill="white"/>
<path d="M44.9143 50.0791L45.3146 46.7651L62.7604 48.8694L62.3601 52.1835L55.6017 51.3683L53.3658 69.8779L49.4367 69.404L51.6727 50.8943L44.9143 50.0791Z" fill="white"/>
<path d="M69.049 49.6279L72.6646 67.492L72.8888 67.5191L80.6439 51.0265L85 51.552L74.6551 72.4459L69.7652 71.856L64.7036 49.1038L69.049 49.6279Z" fill="white"/>
<path d="M29.3172 57.4044L30.6165 46.63L38.3734 53.0294L29.3172 57.4044Z" fill="#7D0E2B"/>
<path d="M18.8547 42.119L22.838 42.7559C23.4753 38.1388 26.8758 34.5422 33.1943 34.7953C57.0404 35.7506 74.8321 40.4208 77.1158 41.7475C82.1612 44.2949 82.8516 47.2138 83.2765 49.0713C83.2765 43.9765 86.1975 40.1024 57.7309 34.6361L65.7504 22.2707L63.8915 21.2092L55.2878 34.2646H53.0041L50.1362 20.5193L48.118 21.05L50.8797 33.6277L31.3355 31.611C24.8561 31.1334 20.1294 34.5831 18.8547 42.119Z" fill="white"/>
<path d="M19.97 67.3806H16.093C15.1583 76.9757 21.2978 85 33.1412 85C24.2188 83.3017 18.5892 77.0394 19.97 67.3806Z" fill="white"/>
<path d="M69.5743 19.2456C69.5743 21.0042 68.1476 22.4299 66.3877 22.4299C64.6278 22.4299 63.2011 21.0042 63.2011 19.2456C63.2011 17.487 64.6278 16.0614 66.3877 16.0614C68.1476 16.0614 69.5743 17.487 69.5743 19.2456Z" fill="white"/>
<path d="M51.7295 18.1842C51.7295 19.9428 50.3028 21.3685 48.5429 21.3685C46.783 21.3685 45.3564 19.9428 45.3564 18.1842C45.3564 16.4256 46.783 15 48.5429 15C50.3028 15 51.7295 16.4256 51.7295 18.1842Z" fill="white"/>
<path d="M23.1927 70.8578L23.8123 70.9334L24.797 73.1651L24.8494 73.1715L26.3429 71.2424L26.9624 71.318L25.0277 73.741L24.8032 75.5776L24.2622 75.5116L24.4867 73.6749L23.1927 70.8578Z" fill="white"/>
<path d="M30.9494 74.0664C30.892 74.5364 30.7572 74.9322 30.5452 75.2538C30.3332 75.5754 30.0675 75.811 29.7481 75.9605C29.4287 76.1099 29.0785 76.1614 28.6974 76.1149C28.3164 76.0684 27.9889 75.9342 27.7149 75.7122C27.4409 75.4903 27.2397 75.1978 27.1114 74.8346C26.9831 74.4715 26.9477 74.0549 27.0052 73.5849C27.0627 73.1148 27.1974 72.719 27.4094 72.3974C27.6215 72.0758 27.8872 71.8403 28.2066 71.6908C28.5259 71.5413 28.8762 71.4898 29.2572 71.5363C29.6382 71.5829 29.9658 71.7171 30.2397 71.939C30.5137 72.1609 30.7149 72.4534 30.8432 72.8166C30.9715 73.1797 31.0069 73.5963 30.9494 74.0664ZM30.4259 74.0025C30.473 73.6166 30.4481 73.283 30.3512 73.0017C30.2556 72.7206 30.1064 72.4984 29.9035 72.3352C29.702 72.1722 29.466 72.0742 29.1955 72.0412C28.925 72.0082 28.6716 72.0464 28.4353 72.156C28.2005 72.2657 28.0021 72.4455 27.8402 72.6951C27.6798 72.945 27.576 73.2629 27.5288 73.6488C27.4816 74.0347 27.5058 74.3682 27.6013 74.6493C27.6983 74.9306 27.8475 75.1527 28.049 75.3157C28.2519 75.4789 28.4886 75.577 28.7591 75.61C29.0297 75.6431 29.2823 75.6047 29.5171 75.495C29.7534 75.3854 29.9518 75.2057 30.1122 74.9558C30.2741 74.7061 30.3787 74.3884 30.4259 74.0025Z" fill="white"/>
<path d="M35.0636 72.3071L35.6046 72.3731L35.2438 75.3239C35.2066 75.6286 35.1013 75.8918 34.9281 76.1136C34.7564 76.3341 34.532 76.4974 34.2549 76.6034C33.9779 76.708 33.6641 76.7389 33.3136 76.6961C32.9631 76.6533 32.666 76.5479 32.4224 76.3797C32.1789 76.2101 31.9997 75.9976 31.8848 75.7421C31.7716 75.4853 31.7335 75.2046 31.7708 74.8999L32.1316 71.9491L32.6726 72.0152L32.3171 74.9224C32.2905 75.1401 32.3148 75.3396 32.3901 75.521C32.4655 75.701 32.586 75.8505 32.7515 75.9693C32.9187 76.0869 33.1266 76.1609 33.3753 76.1913C33.624 76.2216 33.8437 76.1998 34.0343 76.1259C34.225 76.0506 34.378 75.9345 34.4931 75.7778C34.6098 75.6198 34.6815 75.432 34.7081 75.2143L35.0636 72.3071Z" fill="white"/>
<path d="M36.1401 76.9617L36.685 72.505L38.1946 72.6893C38.5437 72.7319 38.8229 72.8264 39.0323 72.9727C39.2419 73.1175 39.3879 73.2995 39.4704 73.5187C39.5528 73.7378 39.578 73.9787 39.5459 74.2413C39.5138 74.5039 39.4315 74.7301 39.299 74.9201C39.1666 75.1101 38.982 75.2495 38.7453 75.3384C38.5088 75.4258 38.2174 75.4484 37.8713 75.4062L36.6496 75.257L36.7092 74.7696L37.9134 74.9166C38.152 74.9457 38.3482 74.9343 38.5021 74.8824C38.6575 74.8307 38.7758 74.745 38.8568 74.6254C38.9395 74.5044 38.9918 74.3547 39.0136 74.1763C39.0354 73.9978 39.021 73.8378 38.9704 73.6962C38.9198 73.5545 38.8255 73.4385 38.6875 73.348C38.5497 73.2561 38.36 73.1954 38.1186 73.1659L37.1675 73.0498L36.6811 77.0277L36.1401 76.9617ZM38.4879 75.2164L39.3426 77.3527L38.7143 77.276L37.877 75.1418L38.4879 75.2164Z" fill="white"/>
<path d="M42.3423 73.1957L42.988 73.2745L44.054 77.1593L44.1064 77.1657L46.0771 73.6516L46.7228 73.7305L46.1779 78.1871L45.6718 78.1254L46.0858 74.7393L46.0421 74.734L44.232 77.9496L43.7433 77.8899L42.7611 74.3334L42.7175 74.3281L42.3035 77.7141L41.7974 77.6524L42.3423 73.1957Z" fill="white"/>
<path d="M51.3048 76.5515C51.2473 77.0215 51.1126 77.4173 50.9006 77.7389C50.6886 78.0605 50.4229 78.2961 50.1035 78.4455C49.7841 78.595 49.4338 78.6465 49.0528 78.6C48.6718 78.5535 48.3442 78.4192 48.0703 78.1973C47.7963 77.9754 47.5951 77.6829 47.4668 77.3197C47.3385 76.9566 47.3031 76.54 47.3606 76.0699C47.4181 75.5999 47.5528 75.2041 47.7648 74.8825C47.9768 74.5609 48.2425 74.3253 48.5619 74.1759C48.8813 74.0264 49.2316 73.9749 49.6126 74.0214C49.9936 74.0679 50.3211 74.2022 50.5951 74.4241C50.8691 74.646 51.0703 74.9385 51.1986 75.3017C51.3269 75.6648 51.3623 76.0814 51.3048 76.5515ZM50.7812 76.4875C50.8284 76.1016 50.8035 75.7681 50.7065 75.4868C50.611 75.2057 50.4618 74.9835 50.2589 74.8203C50.0574 74.6573 49.8214 74.5593 49.5509 74.5263C49.2804 74.4933 49.027 74.5315 48.7907 74.6411C48.5559 74.7508 48.3575 74.9305 48.1956 75.1802C48.0352 75.4301 47.9313 75.748 47.8842 76.1339C47.837 76.5198 47.8612 76.8533 47.9567 77.1344C48.0537 77.4157 48.2029 77.6378 48.4044 77.8008C48.6073 77.964 48.844 78.0621 49.1145 78.0951C49.385 78.1281 49.6377 78.0898 49.8725 77.98C50.1088 77.8705 50.3072 77.6908 50.4676 77.4409C50.6295 77.1912 50.7341 76.8734 50.7812 76.4875Z" fill="white"/>
<path d="M51.9421 78.8909L52.487 74.4342L54.0489 74.6249C54.3602 74.6629 54.6103 74.7479 54.7993 74.8799C54.9885 75.0105 55.1216 75.1718 55.1985 75.3638C55.2756 75.5543 55.3008 75.7583 55.2742 75.9759C55.2508 76.1674 55.1973 76.3214 55.1137 76.4378C55.0315 76.5544 54.9307 76.6422 54.8113 76.7013C54.6934 76.7605 54.5683 76.7997 54.4361 76.8189L54.4307 76.8624C54.5664 76.8878 54.698 76.9525 54.8255 77.0564C54.953 77.1603 55.0534 77.2992 55.1266 77.473C55.1998 77.6469 55.222 77.8513 55.1933 78.0863C55.166 78.3097 55.0905 78.5044 54.9669 78.6705C54.8433 78.8365 54.6653 78.9583 54.4329 79.0359C54.2005 79.1136 53.9084 79.1309 53.5564 79.088L51.9421 78.8909ZM52.5416 78.4782L53.6149 78.6092C53.9683 78.6523 54.2276 78.6148 54.3926 78.4965C54.5592 78.377 54.6545 78.2193 54.6785 78.0235C54.6969 77.8726 54.6754 77.7286 54.6139 77.5915C54.5526 77.453 54.4554 77.3366 54.3223 77.2423C54.1894 77.1466 54.0254 77.0868 53.8305 77.063L52.7311 76.9288L52.5416 78.4782ZM52.7885 76.4587L53.792 76.5812C53.9549 76.6011 54.1057 76.5872 54.2444 76.5393C54.3846 76.4916 54.5003 76.4145 54.5915 76.3078C54.6843 76.2013 54.7402 76.0698 54.7594 75.9131C54.7833 75.7172 54.7353 75.5428 54.6152 75.3897C54.4954 75.2352 54.2871 75.1398 53.9904 75.1036L52.9694 74.979L52.7885 76.4587Z" fill="white"/>
<path d="M57.0235 74.988L56.4786 79.4447L55.9376 79.3787L56.4824 74.922L57.0235 74.988Z" fill="white"/>
<path d="M57.5633 79.5771L58.1082 75.1205L58.6493 75.1865L58.1629 79.1644L60.2397 79.418L60.1812 79.8967L57.5633 79.5771Z" fill="white"/>
<path d="M61.0189 79.999L61.5638 75.5423L64.2602 75.8715L64.2016 76.3503L62.0463 76.0871L61.8622 77.593L63.8779 77.8391L63.8194 78.3178L61.8036 78.0717L61.6185 79.5863L63.8087 79.8537L63.7502 80.3325L61.0189 79.999Z" fill="white"/>
<path d="M66.6602 76.6504L66.7188 76.1717L70.0696 76.5808L70.0111 77.0595L68.6062 76.888L68.1198 80.8659L67.5788 80.7999L68.0651 76.8219L66.6602 76.6504Z" fill="white"/>
<path d="M71.0878 76.7051L71.9555 80.6186L72.0079 80.625L73.7929 77.0353L74.3601 77.1046L72.1747 81.361L71.6163 81.2928L70.5206 76.6358L71.0878 76.7051Z" fill="white"/>
<defs>
<linearGradient id="paint0_linear_480_95" x1="97.7539" y1="100" x2="-1.46797" y2="51.8914" gradientUnits="userSpaceOnUse">
<stop stop-color="#F31B54"/>
<stop offset="1"/>
</linearGradient>
</defs>
</svg>
