<svg width="100" height="100" viewBox="0 0 100 100" fill="none" xmlns="http://www.w3.org/2000/svg">
<rect width="100" height="100" rx="8" fill="black"/>
<path d="M70.7456 11.7615C68.8776 9.66626 66.2049 8.26737 63.2087 8.26862C62.9734 8.26862 62.7356 8.27731 62.4973 8.29408C59.0927 8.54752 52.673 9.50102 47.0144 10.3968C41.3691 11.2906 36.5441 12.123 36.5381 12.1242V12.1261C34.3754 12.4553 32.0972 13.4517 30.2945 15.3251C28.4748 17.203 27.2492 20.0069 27.2625 23.4588C27.2625 24.6173 28.1784 25.5565 29.3054 25.5565C30.4336 25.5565 31.3483 24.6173 31.3483 23.4588C31.3628 20.9741 32.1347 19.4069 33.2067 18.2676C34.2817 17.1384 35.7692 16.4718 37.166 16.2693L37.1896 16.2662L37.2156 16.2619C37.2192 16.2606 38.4146 16.0544 40.3183 15.7351C42.2227 15.4171 44.8294 14.9866 47.6369 14.5425C53.2381 13.6529 59.7006 12.7038 62.7882 12.4795L63.2081 12.464C64.9497 12.4653 66.5328 13.2616 67.7354 14.5996C68.9326 15.9339 69.6791 17.7844 69.6767 19.71V24.5098C69.6767 25.6683 70.5914 26.6075 71.7196 26.6075C72.8478 26.6075 73.7625 25.6683 73.7625 24.5098V19.71C73.7594 16.683 72.6203 13.8604 70.7456 11.7615Z" fill="white"/>
<path d="M71.7202 73.4639C70.592 73.4639 69.6773 74.4031 69.6773 75.5616V80.3614C69.6797 82.287 68.9332 84.1356 67.7361 85.4718C66.5334 86.8098 64.9503 87.6055 63.2087 87.6074L62.7889 87.5931C60.4816 87.4241 56.2495 86.8483 51.935 86.1954C47.6139 85.5426 43.1755 84.8146 40.3196 84.3369C38.4164 84.0176 37.2205 83.8114 37.2168 83.8101L37.192 83.8052L37.1672 83.8027C35.7704 83.6002 34.2829 82.9343 33.2079 81.8044C32.1353 80.6651 31.3634 79.0973 31.3495 76.6126C31.3495 75.4541 30.4348 74.5149 29.3066 74.5149C28.1796 74.5149 27.2637 75.4541 27.2637 76.6126C27.2504 80.0645 28.476 82.8678 30.2957 84.7462C32.0978 86.6203 34.3766 87.6154 36.5393 87.9447L36.5387 87.9478C36.5447 87.9478 41.3697 88.7814 47.015 89.6752C52.673 90.5704 59.0933 91.5245 62.4991 91.7767C62.7374 91.7947 62.974 91.8022 63.2093 91.8022C66.2056 91.8034 68.8782 90.4057 70.7463 88.3093C72.621 86.2103 73.7601 83.3884 73.7637 80.3614V75.5616C73.7631 74.4031 72.849 73.4639 71.7202 73.4639Z" fill="white"/>
<path d="M33.6562 63.2359C31.5316 67.23 26.6564 68.6997 22.766 66.5182C18.8763 64.3372 17.4456 59.3318 19.5701 55.337L30.7869 34.6588C32.9109 30.6653 37.7861 29.1949 41.6752 31.3759C45.5656 33.5581 46.9969 38.5647 44.873 42.5576L33.6562 63.2359Z" fill="url(#paint0_linear_480_48)"/>
<path d="M58.2452 63.2359C56.1206 67.23 51.2454 68.6997 47.355 66.5182C43.4653 64.3372 42.0346 59.3318 44.1591 55.337L55.3759 34.6588C57.4999 30.6653 62.3751 29.1949 66.2643 31.3759C70.1546 33.5581 71.5859 38.5647 69.462 42.5576L58.2452 63.2359Z" fill="#FF5400"/>
<path d="M42.3419 63.2359C44.4664 67.23 49.3416 68.6997 53.232 66.5182C57.1218 64.3372 58.5524 59.3318 56.4279 55.337L45.2111 34.6588C43.0872 30.6653 38.2119 29.1949 34.3228 31.3759C30.4324 33.5581 29.0011 38.5647 31.1251 42.5576L42.3419 63.2359Z" fill="url(#paint1_linear_480_48)"/>
<path d="M66.9303 63.2359C69.0549 67.23 73.9301 68.6997 77.8205 66.5182C81.7102 64.3372 83.1409 59.3318 81.0163 55.337L69.7995 34.6588C67.6756 30.6653 62.8004 29.1949 58.9112 31.3759C55.0209 33.5581 53.5896 38.5647 55.7135 42.5576L66.9303 63.2359Z" fill="url(#paint2_linear_480_48)"/>
<defs>
<linearGradient id="paint0_linear_480_48" x1="-0.729855" y1="106.072" x2="23.485" y2="66.2585" gradientUnits="userSpaceOnUse">
<stop stop-color="#FF0000"/>
<stop offset="1" stop-color="#FF5400"/>
</linearGradient>
<linearGradient id="paint1_linear_480_48" x1="56.6024" y1="71.2849" x2="24.5226" y2="18.2968" gradientUnits="userSpaceOnUse">
<stop stop-color="#FF0000"/>
<stop offset="1" stop-color="#FF5400"/>
</linearGradient>
<linearGradient id="paint2_linear_480_48" x1="59.0039" y1="29.1396" x2="79.8367" y2="70.946" gradientUnits="userSpaceOnUse">
<stop stop-color="#FF0000"/>
<stop offset="1" stop-color="#FF5400"/>
</linearGradient>
</defs>
</svg>
