<svg width="124" height="124" viewBox="0 0 124 124" fill="none" xmlns="http://www.w3.org/2000/svg">
<rect width="124" height="124" rx="8" fill="white"/>
<rect x="0.5" y="0.5" width="123" height="123" rx="7.5" stroke="black" stroke-opacity="0.1"/>
<g clip-path="url(#clip0_480_56)">
<path d="M75.1882 103.999C74.3645 103.999 73.5594 103.753 72.8745 103.293C72.1896 102.833 71.6558 102.179 71.3406 101.414C71.0254 100.649 70.9429 99.8073 71.1036 98.9951C71.2643 98.1829 71.661 97.4368 72.2434 96.8512C72.8258 96.2657 73.5679 95.8669 74.3757 95.7054C75.1836 95.5438 76.021 95.6267 76.782 95.9436C77.5429 96.2605 78.1934 96.7972 78.651 97.4857C79.1086 98.1743 79.3529 98.9838 79.3529 99.8119C79.3529 100.922 78.9141 101.987 78.1331 102.773C77.352 103.558 76.2928 103.999 75.1882 103.999ZM75.1882 102.268C75.6715 102.268 76.1438 102.124 76.5456 101.854C76.9474 101.584 77.2606 101.201 77.4455 100.752C77.6304 100.303 77.6788 99.8092 77.5845 99.3327C77.4903 98.8562 77.2576 98.4185 76.9159 98.075C76.5742 97.7315 76.1388 97.4975 75.6649 97.4027C75.1909 97.3079 74.6997 97.3566 74.2532 97.5425C73.8068 97.7284 73.4252 98.0433 73.1567 98.4472C72.8883 98.8512 72.745 99.3261 72.745 99.8119C72.745 100.463 73.0024 101.088 73.4606 101.549C73.9188 102.009 74.5402 102.268 75.1882 102.268ZM66.4703 103.999C65.6466 103.999 64.8414 103.753 64.1565 103.293C63.4717 102.833 62.9379 102.179 62.6227 101.414C62.3075 100.649 62.225 99.8073 62.3857 98.9951C62.5464 98.1829 62.943 97.4368 63.5254 96.8512C64.1079 96.2657 64.8499 95.8669 65.6578 95.7054C66.4657 95.5438 67.303 95.6267 68.064 95.9436C68.825 96.2605 69.4754 96.7972 69.933 97.4857C70.3907 98.1743 70.6349 98.9838 70.6349 99.8119C70.6349 100.922 70.1961 101.987 69.4151 102.773C68.6341 103.558 67.5748 103.999 66.4703 103.999ZM66.4703 102.268C66.9535 102.268 67.4259 102.124 67.8277 101.854C68.2295 101.584 68.5426 101.201 68.7275 100.752C68.9125 100.303 68.9609 99.8092 68.8666 99.3327C68.7723 98.8562 68.5396 98.4185 68.1979 98.075C67.8562 97.7315 67.4209 97.4975 66.9469 97.4027C66.473 97.3079 65.9817 97.3566 65.5353 97.5425C65.0888 97.7284 64.7073 98.0433 64.4388 98.4472C64.1703 98.8512 64.027 99.3261 64.027 99.8119C64.027 100.463 64.2844 101.088 64.7426 101.549C65.2008 102.009 65.8223 102.268 66.4703 102.268ZM61.917 99.7561C61.917 102.095 60.0512 103.999 57.7523 103.999C55.4535 103.999 53.5877 102.101 53.5877 99.7617C53.5877 97.4225 55.2813 95.6249 57.7523 95.6249C58.663 95.6249 59.507 95.8203 60.1956 96.3283V93.8999C60.1956 93.4365 60.6009 93.0569 61.0563 93.0569C61.5116 93.0569 61.917 93.4365 61.917 93.8999V99.7561ZM57.7523 102.268C58.2356 102.268 58.7079 102.124 59.1097 101.854C59.5115 101.584 59.8247 101.201 60.0096 100.752C60.1945 100.303 60.2429 99.8092 60.1486 99.3327C60.0544 98.8562 59.8217 98.4185 59.48 98.075C59.1383 97.7315 58.7029 97.4975 58.229 97.4027C57.755 97.3079 57.2638 97.3566 56.8173 97.5425C56.3709 97.7284 55.9893 98.0433 55.7208 98.4472C55.4524 98.8512 55.3091 99.3261 55.3091 99.8119C55.3091 100.463 55.5665 101.088 56.0247 101.549C56.4829 102.009 57.1043 102.268 57.7523 102.268Z" fill="#8F8F8F"/>
<path d="M49.4231 103.999C48.5994 103.999 47.7942 103.753 47.1093 103.293C46.4245 102.833 45.8907 102.179 45.5755 101.414C45.2603 100.649 45.1778 99.8073 45.3385 98.9951C45.4992 98.1829 45.8958 97.4368 46.4782 96.8513C47.0607 96.2657 47.8027 95.8669 48.6106 95.7054C49.4185 95.5438 50.2558 95.6268 51.0168 95.9437C51.7778 96.2606 52.4282 96.7972 52.8858 97.4858C53.3435 98.1743 53.5877 98.9838 53.5877 99.8119C53.5877 100.922 53.1489 101.987 52.3679 102.773C51.5869 103.558 50.5276 103.999 49.4231 103.999ZM49.4231 102.268C49.9063 102.268 50.3787 102.124 50.7805 101.854C51.1823 101.584 51.4954 101.201 51.6803 100.752C51.8653 100.303 51.9137 99.8092 51.8194 99.3327C51.7251 98.8562 51.4924 98.4185 51.1507 98.075C50.809 97.7315 50.3737 97.4975 49.8997 97.4028C49.4258 97.308 48.9345 97.3566 48.4881 97.5425C48.0416 97.7285 47.6601 98.0433 47.3916 98.4472C47.1231 98.8512 46.9798 99.3261 46.9798 99.8119C46.9798 100.463 47.2372 101.088 47.6954 101.549C48.1536 102.01 48.7751 102.268 49.4231 102.268Z" fill="#714B67"/>
</g>
<path d="M78.6672 21.0758C77.1181 19.3383 74.9018 18.1783 72.4171 18.1793C72.2219 18.1793 72.0248 18.1865 71.8271 18.2004C69.0038 18.4106 63.6803 19.2013 58.9878 19.9441C54.3063 20.6854 50.3051 21.3756 50.3001 21.3766V21.3782C48.5067 21.6512 46.6175 22.4774 45.1226 24.031C43.6136 25.5882 42.5972 27.9135 42.6083 30.776C42.6083 31.7367 43.3678 32.5155 44.3024 32.5155C45.2379 32.5155 45.9964 31.7367 45.9964 30.776C46.0085 28.7155 46.6486 27.4159 47.5375 26.4711C48.429 25.5347 49.6625 24.9819 50.8209 24.814L50.8404 24.8114L50.862 24.8078C50.865 24.8068 51.8563 24.6358 53.435 24.371C55.0142 24.1073 57.1758 23.7503 59.504 23.382C64.1488 22.6443 69.508 21.8572 72.0684 21.6713L72.4166 21.6584C73.8608 21.6594 75.1736 22.3198 76.1709 23.4294C77.1637 24.5359 77.7828 26.0704 77.7808 27.6672V31.6475C77.7808 32.6082 78.5392 33.3871 79.4748 33.3871C80.4104 33.3871 81.1689 32.6082 81.1689 31.6475V27.6672C81.1664 25.1571 80.2218 22.8164 78.6672 21.0758Z" fill="black"/>
<path d="M79.4753 72.2433C78.5398 72.2433 77.7812 73.0221 77.7812 73.9828V77.9631C77.7833 79.56 77.1642 81.093 76.1714 82.201C75.1742 83.3105 73.8613 83.9704 72.4171 83.9719L72.0689 83.9601C70.1556 83.82 66.646 83.3425 63.0682 82.8011C59.4849 82.2597 55.8043 81.656 53.436 81.2599C51.8578 80.9951 50.866 80.8241 50.863 80.8231L50.8424 80.8189L50.8219 80.8169C49.6635 80.6489 48.43 80.0967 47.5385 79.1597C46.6491 78.215 46.009 76.9149 45.9975 74.8544C45.9975 73.8937 45.239 73.1149 44.3034 73.1149C43.3688 73.1149 42.6093 73.8937 42.6093 74.8544C42.5982 77.7169 43.6146 80.0416 45.1236 81.5993C46.618 83.1534 48.5077 83.9786 50.3011 84.2517L50.3006 84.2542C50.3057 84.2542 54.3069 84.9455 58.9883 85.6868C63.6803 86.4291 69.0043 87.2203 71.8286 87.4294C72.0263 87.4443 72.2224 87.4505 72.4176 87.4505C74.9023 87.4516 77.1186 86.2925 78.6677 84.554C80.2223 82.8135 81.1669 80.4733 81.1699 77.9631V73.9828C81.1694 73.0221 80.4114 72.2433 79.4753 72.2433Z" fill="black"/>
<path d="M47.9103 63.7616C46.1485 67.0738 42.1056 68.2925 38.8795 66.4835C35.6539 64.6749 34.4675 60.5241 36.2293 57.2114L45.5309 40.0637C47.2922 36.752 51.3351 35.5327 54.5602 37.3413C57.7863 39.1509 58.9733 43.3027 57.2119 46.6139L47.9103 63.7616Z" fill="url(#paint0_linear_480_56)"/>
<path d="M68.301 63.7616C66.5392 67.0738 62.4964 68.2925 59.2702 66.4835C56.0446 64.6749 54.8582 60.5241 56.62 57.2114L65.9217 40.0637C67.683 36.752 71.7258 35.5327 74.9509 37.3413C78.1771 39.1509 79.364 43.3027 77.6027 46.6139L68.301 63.7616Z" fill="#FF5400"/>
<path d="M55.113 63.7616C56.8749 67.0738 60.9177 68.2925 64.1438 66.4835C67.3695 64.6749 68.5559 60.5241 66.7941 57.2114L57.4924 40.0637C55.7311 36.752 51.6882 35.5327 48.4631 37.3413C45.237 39.1509 44.0501 43.3027 45.8114 46.6139L55.113 63.7616Z" fill="url(#paint1_linear_480_56)"/>
<path d="M75.5033 63.7616C77.2651 67.0738 81.3079 68.2925 84.5341 66.4835C87.7597 64.6749 88.9461 60.5241 87.1843 57.2114L77.8826 40.0637C76.1213 36.752 72.0785 35.5327 68.8533 37.3413C65.6272 39.1509 64.4403 43.3027 66.2016 46.6139L75.5033 63.7616Z" fill="url(#paint2_linear_480_56)"/>
<defs>
<linearGradient id="paint0_linear_480_56" x1="19.3953" y1="99.2842" x2="39.4757" y2="66.2681" gradientUnits="userSpaceOnUse">
<stop stop-color="#FF0000"/>
<stop offset="1" stop-color="#FF5400"/>
</linearGradient>
<linearGradient id="paint1_linear_480_56" x1="66.9388" y1="70.4364" x2="40.3362" y2="26.4953" gradientUnits="userSpaceOnUse">
<stop stop-color="#FF0000"/>
<stop offset="1" stop-color="#FF5400"/>
</linearGradient>
<linearGradient id="paint2_linear_480_56" x1="68.9302" y1="35.4868" x2="86.2061" y2="70.1553" gradientUnits="userSpaceOnUse">
<stop stop-color="#FF0000"/>
<stop offset="1" stop-color="#FF5400"/>
</linearGradient>
<clipPath id="clip0_480_56">
<rect width="35" height="11" fill="white" transform="translate(45 93)"/>
</clipPath>
</defs>
</svg>
