<svg width="106" height="106" viewBox="0 0 106 106" fill="none" xmlns="http://www.w3.org/2000/svg">
<path d="M40.085 84.3163H34.3363C29.1965 84.3163 25.0175 80.1346 25.0175 74.9975V31.0025C25.0175 26.2119 28.6663 22.3006 33.323 21.7861V22.4056C33.323 23.7103 34.3809 24.7681 35.6855 24.7681C36.9901 24.7681 38.048 23.7103 38.048 22.4056V21.6838H50.7058V22.4056C50.7058 23.7103 51.7636 24.7681 53.0683 24.7681C54.3729 24.7681 55.4308 23.7103 55.4308 22.4056V21.6838H68.0885V22.4056C68.0885 23.7103 69.1464 24.7681 70.451 24.7681C71.7556 24.7681 72.8135 23.7103 72.8135 22.4056V21.7861C77.4703 22.3006 81.1164 26.2119 81.1164 31.0025V43.7338C81.1164 45.0384 82.1743 46.0963 83.4789 46.0963C84.7835 46.0963 85.8414 45.0384 85.8414 43.7338V31.0025C85.8414 23.6053 80.0769 17.594 72.8161 17.0611V16.25C72.8161 14.9454 71.7583 13.8875 70.4536 13.8875C69.149 13.8875 68.0911 14.9454 68.0911 16.25V16.9588H55.4334V16.25C55.4334 14.9454 54.3755 13.8875 53.0709 13.8875C51.7663 13.8875 50.7084 14.9454 50.7084 16.25V16.9588H38.0506V16.25C38.0506 14.9454 36.9928 13.8875 35.6881 13.8875C34.3835 13.8875 33.3256 14.9454 33.3256 16.25V17.0611C26.057 17.5914 20.2925 23.6053 20.2925 31.0025V74.9975C20.2925 82.7413 26.5925 89.0413 34.3363 89.0413H40.085C41.3896 89.0413 42.4475 87.9834 42.4475 86.6788C42.4475 85.3741 41.3896 84.3163 40.085 84.3163Z" fill="#0048FF"/>
<path d="M74.2205 39.2686C74.2205 37.964 73.1626 36.9061 71.858 36.9061H34.2759C32.9713 36.9061 31.9134 37.964 31.9134 39.2686C31.9134 40.5733 32.9713 41.6311 34.2759 41.6311H71.858C73.1626 41.6311 74.2205 40.5733 74.2205 39.2686Z" fill="#0048FF"/>
<path d="M34.2838 52.1863C32.9791 52.1863 31.9213 53.2442 31.9213 54.5488C31.9213 55.8534 32.9791 56.9113 34.2838 56.9113H61.61C62.9146 56.9113 63.9725 55.8534 63.9725 54.5488C63.9725 53.2442 62.9146 52.1863 61.61 52.1863H34.2838Z" fill="#0048FF"/>
<path d="M48.695 69.8262C48.695 68.5216 47.6371 67.4637 46.3325 67.4637H34.2838C32.9791 67.4637 31.9213 68.5216 31.9213 69.8262C31.9213 71.1309 32.9791 72.1887 34.2838 72.1887H46.3325C47.6371 72.1887 48.695 71.1309 48.695 69.8262Z" fill="#0048FF"/>
<path d="M86.1879 52.8005C82.673 49.283 76.541 49.283 73.0261 52.8005L49.5717 76.2522C48.8604 76.9662 48.3931 77.8719 48.2251 78.8667L46.9415 86.4687C46.6816 88.0096 47.1882 89.5925 48.2934 90.6976C49.2069 91.6111 50.4432 92.1125 51.7137 92.1125C51.9815 92.1125 52.2492 92.0915 52.517 92.0442L60.119 90.7606C61.1165 90.5926 62.0221 90.1254 62.7361 89.4114L86.1852 65.9622C87.944 64.2061 88.9126 61.8672 88.9126 59.3814C88.9126 56.8955 87.9466 54.5566 86.1879 52.8005ZM59.3367 86.1012L51.6035 87.2536L52.916 79.5886L69.9234 62.5812L76.3992 69.0571L59.3367 86.1012ZM82.8462 62.6232L79.7435 65.7207L73.265 59.2422L76.3651 56.1421C77.2576 55.2496 78.4336 54.8034 79.6044 54.8034C80.7751 54.8034 81.9511 55.2496 82.8436 56.1421C84.6339 57.9271 84.6339 60.8356 82.8462 62.6232Z" fill="#FF6D40"/>
</svg>
