<svg width="100" height="100" viewBox="0 0 100 100" fill="none" xmlns="http://www.w3.org/2000/svg">
<g clip-path="url(#clip0_480_67)">
<rect width="100" height="100" rx="8" fill="url(#paint0_radial_480_67)"/>
<path d="M48.026 15.2973C47.9797 14.6285 47.3995 14.1216 46.7327 14.1911C38.1639 15.0831 30.2093 19.1111 24.4139 25.524C18.3467 32.2376 15.1187 41.042 15.4085 50.0863C15.6982 59.1306 19.4832 67.7102 25.9678 74.0217C32.4523 80.3331 41.1312 83.8847 50.1801 83.9297C59.2289 83.9747 67.9427 80.5097 74.4898 74.2632C81.0368 68.0166 84.907 59.475 85.2868 50.434C85.6666 41.3931 82.5264 32.557 76.5263 25.7833C70.7951 19.3131 62.8809 15.2061 54.3214 14.2288C53.6554 14.1528 53.0701 14.6538 53.0172 15.3222C52.9643 15.9905 53.4638 16.5728 54.1297 16.6506C62.0627 17.5772 69.3944 21.3933 74.709 27.3931C80.2924 33.6964 83.2146 41.919 82.8612 50.3322C82.5077 58.7453 78.9063 66.6938 72.8138 72.5066C66.7214 78.3195 58.6126 81.5439 50.1921 81.502C41.7716 81.46 33.6953 78.1551 27.6611 72.2819C21.6268 66.4087 18.1047 58.4248 17.835 50.0085C17.5653 41.5922 20.5692 33.3992 26.2151 27.1518C31.5892 21.2051 38.9585 17.4622 46.9003 16.6146C47.5669 16.5435 48.0722 15.9661 48.026 15.2973Z" fill="white"/>
<path d="M81.3105 35.5228C81.9254 35.2558 82.2094 34.5397 81.9211 33.9344C79.3725 28.5823 75.5015 23.9596 70.6657 20.5081C65.8298 17.0566 60.1999 14.8983 54.31 14.2276C53.6439 14.1517 53.0591 14.653 53.0064 15.3213C52.9537 15.9897 53.4532 16.5718 54.1191 16.6494C59.5696 17.2844 64.7782 19.2887 69.2553 22.4842C73.7324 25.6796 77.3208 29.954 79.6928 34.9022C79.9826 35.5067 80.6955 35.7899 81.3105 35.5228Z" fill="url(#paint1_linear_480_67)"/>
<path d="M72.4594 62.0438L58.7497 53.8398L58.7497 58.6856C58.7497 60.6774 57.132 62.294 55.1387 62.294L29.8618 62.294C27.8685 62.294 26.2508 60.6774 26.2508 58.6856L26.2508 39.4411C26.2508 37.4493 27.8685 35.8328 29.8618 35.8328L55.1387 35.8328C57.132 35.8328 58.7497 37.4493 58.7497 39.4411L58.7497 44.1436L72.4594 36.083C72.823 35.8039 73.314 35.7534 73.7257 35.9555C74.1373 36.1599 74.3973 36.5785 74.3973 37.0356L74.3973 61.0912C74.3973 61.5483 74.1373 61.9668 73.7257 62.1713C73.314 62.3734 72.823 62.3228 72.4594 62.0438Z" fill="white"/>
<path d="M39.2192 49.0335C39.2253 50.7597 37.8051 52.164 36.0472 52.1702C34.2893 52.1763 32.8593 50.782 32.8533 49.0559C32.8472 47.3297 34.2674 45.9254 36.0253 45.9193C37.7832 45.9131 39.2132 47.3074 39.2192 49.0335Z" fill="black"/>
<path d="M37.6277 49.0391C37.6308 49.9022 36.9207 50.6044 36.0417 50.6074C35.1628 50.6105 34.4478 49.9134 34.4448 49.0503C34.4417 48.1872 35.1518 47.4851 36.0308 47.482C36.9097 47.4789 37.6247 48.1761 37.6277 49.0391Z" fill="#FA1A42"/>
<path d="M47.8397 49.0033C47.8382 48.5807 47.9341 48.2013 48.1272 47.865C48.3245 47.5287 48.5903 47.2667 48.9245 47.0791C49.2629 46.8874 49.6326 46.7908 50.0337 46.7894C50.4926 46.7877 50.9003 46.9003 51.2567 47.1269C51.6172 47.3493 51.8788 47.6674 52.0415 48.0812L51.1918 48.0842C51.0794 47.8567 50.9237 47.6874 50.7249 47.5762C50.526 47.465 50.2964 47.4099 50.0359 47.4108C49.7506 47.4118 49.4965 47.4769 49.2737 47.6062C49.0509 47.7354 48.8758 47.9204 48.7485 48.1611C48.6253 48.4018 48.5642 48.6817 48.5653 49.0007C48.5665 49.3198 48.6295 49.5992 48.7544 49.8391C48.8834 50.0789 49.0597 50.2647 49.2835 50.3965C49.5072 50.5242 49.7617 50.5875 50.047 50.5865C50.3075 50.5856 50.5368 50.5289 50.7348 50.4163C50.9329 50.3037 51.0874 50.1333 51.1982 49.9051L52.0479 49.9021C51.8881 50.317 51.6287 50.6369 51.2698 50.8619C50.915 51.0869 50.5081 51.2002 50.0492 51.2018C49.644 51.2032 49.2736 51.1113 48.938 50.926C48.6025 50.7366 48.3348 50.4744 48.1352 50.1395C47.9397 49.8046 47.8412 49.4259 47.8397 49.0033Z" fill="black"/>
<path d="M45.5245 47.4329L45.5289 48.7007L47.0174 48.6954L47.0194 49.2734L45.5309 49.2786L45.5356 50.6023L47.2101 50.5965L47.2122 51.1744L44.8306 51.1828L44.8154 46.8574L47.197 46.849L47.199 47.427L45.5245 47.4329Z" fill="black"/>
<path d="M43.1508 51.1887L42.1525 49.4645L41.6129 49.4664L41.619 51.1941L40.9119 51.1965L40.8968 46.8774L42.3852 46.8721C42.716 46.871 42.9953 46.928 43.2231 47.0432C43.4551 47.1584 43.6272 47.3132 43.7395 47.5075C43.856 47.7018 43.9146 47.9191 43.9155 48.1594C43.9165 48.4412 43.8347 48.6983 43.6701 48.9309C43.5096 49.1593 43.26 49.3156 42.9213 49.3996L43.9943 51.1857L43.1508 51.1887ZM41.6109 48.9008L42.3924 48.8981C42.657 48.8972 42.8552 48.8302 42.9871 48.6971C43.123 48.5641 43.1906 48.3857 43.1898 48.162C43.1891 47.9382 43.1223 47.7645 42.9895 47.6406C42.8568 47.5127 42.656 47.4491 42.3873 47.4501L41.6058 47.4528L41.6109 48.9008Z" fill="black"/>
</g>
<defs>
<radialGradient id="paint0_radial_480_67" cx="0" cy="0" r="1" gradientUnits="userSpaceOnUse" gradientTransform="translate(60.1563 23.6979) rotate(127.61) scale(115.896 134.735)">
<stop offset="0.0224282" stop-color="#194CC3"/>
<stop offset="0.489616" stop-color="#062675"/>
<stop offset="0.72563" stop-color="#031A57"/>
</radialGradient>
<linearGradient id="paint1_linear_480_67" x1="53.6442" y1="15.5047" x2="80.3923" y2="33.7507" gradientUnits="userSpaceOnUse">
<stop stop-color="#1647B8"/>
<stop offset="1" stop-color="white"/>
</linearGradient>
<clipPath id="clip0_480_67">
<rect width="100" height="100" rx="8" fill="white"/>
</clipPath>
</defs>
</svg>
