<?xml version="1.0" encoding="UTF-8"?>
<svg xmlns="http://www.w3.org/2000/svg" xmlns:xlink="http://www.w3.org/1999/xlink" width="164px" height="164px" viewBox="0 0 164 164" version="1.1">
<defs>
<linearGradient id="linear0" gradientUnits="userSpaceOnUse" x1="512" y1="1024" x2="512" y2="0.0000303201" gradientTransform="matrix(0.160156,0,0,0.160156,0,0)">
<stop offset="0" style="stop-color:rgb(100%,84.705882%,76.078431%);stop-opacity:1;"/>
<stop offset="1" style="stop-color:rgb(97.254902%,92.156863%,65.098039%);stop-opacity:1;"/>
</linearGradient>
<linearGradient id="linear1" gradientUnits="userSpaceOnUse" x1="320" y1="1000" x2="852" y2="25.5" gradientTransform="matrix(0.160156,0,0,0.160156,0,0)">
<stop offset="0" style="stop-color:rgb(100%,84.705882%,76.078431%);stop-opacity:1;"/>
<stop offset="1" style="stop-color:rgb(96.470588%,52.54902%,36.862745%);stop-opacity:1;"/>
</linearGradient>
<radialGradient id="radial0" gradientUnits="userSpaceOnUse" cx="0" cy="0" fx="0" fy="0" r="1" gradientTransform="matrix(-115.99672,150.570438,-175.045512,-134.851871,98.65625,38.864638)">
<stop offset="0.0224282" style="stop-color:rgb(9.803922%,29.803922%,76.470588%);stop-opacity:1;"/>
<stop offset="0.489616" style="stop-color:rgb(2.352941%,14.901961%,45.882353%);stop-opacity:1;"/>
<stop offset="0.72563" style="stop-color:rgb(1.176471%,10.196078%,34.117647%);stop-opacity:1;"/>
</radialGradient>
<linearGradient id="linear2" gradientUnits="userSpaceOnUse" x1="546.5" y1="161.5" x2="826.5" y2="352.5" gradientTransform="matrix(0.160156,0,0,0.160156,0,0)">
<stop offset="0" style="stop-color:rgb(8.627451%,27.843137%,72.156863%);stop-opacity:1;"/>
<stop offset="1" style="stop-color:rgb(100%,100%,100%);stop-opacity:1;"/>
</linearGradient>
</defs>
<g id="surface1">
<rect x="0" y="0" width="164" height="164" style="fill:url(#linear0);stroke:none;"/>
<rect x="0" y="0" width="164" height="164" style="fill:url(#linear1);stroke:none;"/>
<rect x="0" y="0" width="164" height="164" style="fill:url(#radial0);stroke:none;"/>
<path style=" stroke:none;fill-rule:nonzero;fill:rgb(100%,100%,100%);fill-opacity:1;" d="M 78.105469 25.519531 C 78.027344 24.394531 77.054688 23.546875 75.9375 23.664062 C 61.574219 25.160156 48.234375 31.910156 38.519531 42.664062 C 28.347656 53.917969 22.9375 68.679688 23.421875 83.84375 C 23.90625 99.003906 30.253906 113.390625 41.125 123.96875 C 51.996094 134.550781 66.546875 140.507812 81.71875 140.582031 C 96.886719 140.65625 111.496094 134.847656 122.472656 124.375 C 133.449219 113.902344 139.9375 99.582031 140.574219 84.425781 C 141.210938 69.269531 135.945312 54.453125 125.886719 43.097656 C 116.277344 32.25 103.011719 25.363281 88.660156 23.726562 C 87.542969 23.597656 86.5625 24.4375 86.472656 25.558594 C 86.386719 26.679688 87.222656 27.65625 88.339844 27.785156 C 101.640625 29.339844 113.929688 35.738281 122.839844 45.796875 C 132.203125 56.363281 137.101562 70.148438 136.507812 84.253906 C 135.914062 98.359375 129.878906 111.683594 119.664062 121.429688 C 109.449219 131.175781 95.855469 136.582031 81.738281 136.511719 C 67.621094 136.441406 54.082031 130.898438 43.964844 121.054688 C 33.847656 111.207031 27.941406 97.820312 27.492188 83.710938 C 27.039062 69.601562 32.074219 55.867188 41.539062 45.390625 C 50.550781 35.421875 62.90625 29.148438 76.21875 27.726562 C 77.335938 27.605469 78.183594 26.640625 78.105469 25.519531 Z M 78.105469 25.519531 "/>
<path style=" stroke:none;fill-rule:nonzero;fill:url(#linear2);" d="M 133.910156 59.425781 C 134.941406 58.976562 135.414062 57.777344 134.933594 56.761719 C 130.660156 47.789062 124.167969 40.039062 116.0625 34.253906 C 107.953125 28.46875 98.515625 24.847656 88.640625 23.722656 C 87.523438 23.597656 86.542969 24.4375 86.457031 25.558594 C 86.367188 26.679688 87.203125 27.65625 88.320312 27.785156 C 97.460938 28.847656 106.191406 32.210938 113.699219 37.566406 C 121.203125 42.921875 127.21875 50.089844 131.195312 58.386719 C 131.683594 59.398438 132.878906 59.875 133.910156 59.425781 Z M 133.910156 59.425781 "/>
<path style=" stroke:none;fill-rule:nonzero;fill:rgb(100%,100%,100%);fill-opacity:1;" d="M 119.03125 103.84375 L 96.046875 90.085938 L 96.046875 98.210938 C 96.046875 101.550781 93.335938 104.261719 89.992188 104.261719 L 47.617188 104.261719 C 44.273438 104.261719 41.5625 101.550781 41.5625 98.210938 L 41.5625 65.949219 C 41.5625 62.609375 44.273438 59.898438 47.617188 59.898438 L 89.992188 59.898438 C 93.335938 59.898438 96.046875 62.609375 96.046875 65.949219 L 96.046875 73.832031 L 119.03125 60.316406 C 119.640625 59.851562 120.464844 59.765625 121.152344 60.105469 C 121.84375 60.445312 122.28125 61.148438 122.28125 61.914062 L 122.28125 102.246094 C 122.28125 103.011719 121.84375 103.714844 121.152344 104.054688 C 120.464844 104.394531 119.640625 104.308594 119.03125 103.84375 Z M 119.03125 103.84375 "/>
<path style=" stroke:none;fill-rule:nonzero;fill:rgb(0%,0%,0%);fill-opacity:1;" d="M 63.304688 82.03125 C 63.3125 84.925781 60.933594 87.277344 57.984375 87.289062 C 55.039062 87.300781 52.640625 84.960938 52.628906 82.066406 C 52.621094 79.171875 55 76.820312 57.949219 76.808594 C 60.894531 76.796875 63.292969 79.136719 63.304688 82.03125 Z M 63.304688 82.03125 "/>
<path style=" stroke:none;fill-rule:nonzero;fill:rgb(98.039216%,10.196079%,25.882354%);fill-opacity:1;" d="M 60.636719 82.039062 C 60.640625 83.488281 59.449219 84.664062 57.976562 84.667969 C 56.503906 84.675781 55.304688 83.503906 55.296875 82.058594 C 55.292969 80.609375 56.484375 79.433594 57.957031 79.429688 C 59.429688 79.425781 60.628906 80.59375 60.636719 82.039062 Z M 60.636719 82.039062 "/>
<path style=" stroke:none;fill-rule:nonzero;fill:rgb(0%,0%,0%);fill-opacity:1;" d="M 77.753906 81.980469 C 77.753906 81.269531 77.914062 80.636719 78.238281 80.070312 C 78.570312 79.507812 79.015625 79.066406 79.574219 78.753906 C 80.140625 78.433594 80.761719 78.269531 81.433594 78.269531 C 82.203125 78.265625 82.886719 78.453125 83.484375 78.832031 C 84.089844 79.207031 84.527344 79.738281 84.800781 80.433594 L 83.375 80.4375 C 83.1875 80.058594 82.925781 79.773438 82.59375 79.585938 C 82.257812 79.402344 81.875 79.308594 81.4375 79.308594 C 80.960938 79.3125 80.535156 79.421875 80.160156 79.636719 C 79.785156 79.855469 79.492188 80.164062 79.277344 80.566406 C 79.074219 80.972656 78.96875 81.441406 78.972656 81.976562 C 78.972656 82.511719 79.078125 82.980469 79.289062 83.378906 C 79.503906 83.78125 79.800781 84.09375 80.175781 84.316406 C 80.550781 84.53125 80.976562 84.636719 81.457031 84.632812 C 81.894531 84.632812 82.277344 84.539062 82.609375 84.347656 C 82.941406 84.160156 83.199219 83.875 83.386719 83.492188 L 84.8125 83.488281 C 84.542969 84.183594 84.109375 84.71875 83.507812 85.09375 C 82.910156 85.472656 82.230469 85.664062 81.460938 85.664062 C 80.78125 85.667969 80.160156 85.511719 79.597656 85.203125 C 79.035156 84.886719 78.585938 84.445312 78.25 83.882812 C 77.921875 83.324219 77.757812 82.6875 77.753906 81.980469 Z M 77.753906 81.980469 "/>
<path style=" stroke:none;fill-rule:nonzero;fill:rgb(0%,0%,0%);fill-opacity:1;" d="M 73.875 79.347656 L 73.882812 81.472656 L 76.378906 81.464844 L 76.378906 82.433594 L 73.886719 82.441406 L 73.894531 84.660156 L 76.699219 84.652344 L 76.703125 85.621094 L 72.710938 85.632812 L 72.683594 78.382812 L 76.679688 78.367188 L 76.679688 79.335938 Z M 73.875 79.347656 "/>
<path style=" stroke:none;fill-rule:nonzero;fill:rgb(0%,0%,0%);fill-opacity:1;" d="M 69.894531 85.644531 L 68.222656 82.753906 L 67.316406 82.757812 L 67.328125 85.652344 L 66.140625 85.65625 L 66.117188 78.414062 L 68.609375 78.40625 C 69.164062 78.40625 69.632812 78.5 70.015625 78.695312 C 70.40625 78.886719 70.695312 79.144531 70.882812 79.472656 C 71.078125 79.796875 71.175781 80.160156 71.175781 80.566406 C 71.179688 81.039062 71.042969 81.46875 70.765625 81.859375 C 70.496094 82.242188 70.078125 82.503906 69.511719 82.644531 L 71.308594 85.636719 Z M 67.3125 81.808594 L 68.625 81.804688 C 69.066406 81.800781 69.398438 81.6875 69.621094 81.464844 C 69.847656 81.242188 69.960938 80.945312 69.960938 80.570312 C 69.957031 80.195312 69.847656 79.902344 69.625 79.695312 C 69.402344 79.480469 69.066406 79.375 68.613281 79.375 L 67.304688 79.378906 Z M 67.3125 81.808594 "/>
</g>
</svg>
