<svg width="100" height="100" viewBox="0 0 100 100" fill="none" xmlns="http://www.w3.org/2000/svg">
<rect width="100" height="100" rx="8" fill="#1C1C1C"/>
<path d="M50.0419 51.7433C50.0315 51.7433 50.0315 51.7433 50.0213 51.7433C49.9592 51.7537 50.0213 51.7433 50.0419 51.7433Z" fill="white"/>
<path d="M49.7419 48.2371C49.7522 48.2371 49.7522 48.2371 49.7522 48.2371C49.8139 48.2268 49.7522 48.2268 49.7419 48.2371Z" fill="white"/>
<path d="M50.0254 71.3901C61.8401 71.3901 71.4179 61.8124 71.4179 49.9977C71.4179 38.183 61.8401 28.6053 50.0254 28.6053C38.2107 28.6053 28.633 38.183 28.633 49.9977C28.633 61.8124 38.2107 71.3901 50.0254 71.3901Z" fill="#B8D9B0"/>
<g clip-path="url(#clip0_480_37)">
<path fill-rule="evenodd" clip-rule="evenodd" d="M51.6756 37.5702C52.0871 36.9837 52.896 36.8416 53.4828 37.2527L59.8558 41.7177C60.4426 42.1287 60.5853 42.9374 60.1748 43.5245L59.2754 44.8107C59.9039 44.8506 60.4987 45.1179 60.9467 45.5659C61.4335 46.0527 61.707 46.713 61.707 47.4015V49.9974C62.4239 49.9974 63.005 50.5785 63.005 51.2954V56.4872C63.005 57.2041 62.4239 57.7852 61.707 57.7852V60.3811C61.707 61.0696 61.4335 61.7299 60.9467 62.2167C60.4599 62.7035 59.7996 62.977 59.1111 62.977H39.6416C38.9532 62.977 38.2929 62.7035 37.806 62.2167C37.3192 61.7299 37.0457 61.0696 37.0457 60.3811V47.4015C37.0457 46.713 37.3192 46.0527 37.806 45.5659C38.2929 45.079 38.9532 44.8055 39.6416 44.8055H41.0177L45.1859 38.8679C45.5949 38.2853 46.3968 38.1408 46.9834 38.544L49.688 40.4028L51.6756 37.5702ZM60.4068 55.1892C60.4076 55.1892 60.4083 55.1892 60.4091 55.1892L60.4091 52.5933H55.2172V55.1892H60.4068ZM59.1111 57.7852V60.3811H39.6416V47.4015L59.1111 47.4015V49.9974H55.2172C54.5287 49.9974 53.8684 50.2709 53.3816 50.7577C52.8948 51.2446 52.6213 51.9048 52.6213 52.5933V55.1892C52.6213 55.8777 52.8948 56.538 53.3816 57.0248C53.8684 57.5117 54.5287 57.7852 55.2172 57.7852H59.1111ZM48.1969 42.5279L46.5722 41.4113L44.1894 44.8055H46.5988L48.1969 42.5279ZM49.7802 44.8055L51.0853 42.9587C51.1256 42.9017 51.161 42.8419 51.1913 42.7799L53.0556 40.123L57.3043 43.0997L56.1115 44.8055H49.7802Z" fill="black"/>
</g>
<path d="M50.0191 16.2438C59.6864 16.2438 68.8282 20.4083 75.1938 27.5492H66.9022C65.7392 27.5492 64.7887 28.4871 64.7887 29.6627C64.7887 30.8257 65.7266 31.7762 66.9022 31.7762H79.5583C80.7213 31.7762 81.6718 30.8383 81.6718 29.6627V16.9942C81.6718 15.8312 80.7339 14.8807 79.5583 14.8807C78.3827 14.8807 77.4448 15.8186 77.4448 16.9942V23.76C70.3288 16.3314 60.4741 12.0294 50.0189 12.0294C29.0714 12.0292 12.0506 29.05 12.0506 49.9977C12.0506 51.1608 12.9885 52.1112 14.1641 52.1112C15.3397 52.1112 16.2776 51.1733 16.2776 49.9977C16.2652 31.3887 31.4101 16.2438 50.0191 16.2438Z" fill="white"/>
<path d="M85.8865 47.884C84.7235 47.884 83.773 48.8219 83.773 49.9975C83.773 68.6066 68.6282 83.7514 50.0191 83.7514C38.7762 83.7514 28.3711 78.1612 22.1305 68.9819H31.0347C32.1978 68.9819 33.1482 68.044 33.1482 66.8684C33.1482 65.7053 32.2104 64.7549 31.0347 64.7549H18.3786C17.2156 64.7549 16.2652 65.6928 16.2652 66.8684V79.5245C16.2652 80.6875 17.203 81.638 18.3786 81.638C19.5543 81.638 20.4921 80.7001 20.4921 79.5245V73.8343C27.6205 82.6635 38.4258 87.9662 50.0315 87.9662C70.9792 87.9662 88 70.9454 88 49.9977C87.9874 48.8345 87.0496 47.884 85.8865 47.884Z" fill="white"/>
<defs>
<clipPath id="clip0_480_37">
<rect width="26.1447" height="26.1447" fill="white" transform="translate(36.953 36.925)"/>
</clipPath>
</defs>
</svg>
