<?xml version="1.0" encoding="UTF-8"?>
<svg xmlns="http://www.w3.org/2000/svg" xmlns:xlink="http://www.w3.org/1999/xlink" width="100px" height="100px" viewBox="0 0 100 100" version="1.1">
<g id="surface1">
<path style=" stroke:none;fill-rule:nonzero;fill:rgb(97.254902%,59.215689%,0%);fill-opacity:1;" d="M 0 0 C 33 0 66 0 100 0 C 100 33 100 66 100 100 C 67 100 34 100 0 100 C 0 67 0 34 0 0 Z M 0 0 "/>
<path style=" stroke:none;fill-rule:nonzero;fill:rgb(57.647061%,0%,38.82353%);fill-opacity:1;" d="M 100 27.734375 C 100 51.582031 100 75.429688 100 100 C 69.125 100 38.253906 100 6.445312 100 C 6.835938 99.480469 7.214844 99.003906 7.660156 98.535156 C 7.773438 98.414062 7.886719 98.296875 7.996094 98.175781 C 8.050781 98.121094 8.101562 98.0625 8.15625 98.003906 C 8.378906 97.765625 8.59375 97.519531 8.808594 97.269531 C 9.042969 97.003906 9.28125 96.746094 9.523438 96.484375 C 9.878906 96.097656 10.226562 95.707031 10.574219 95.3125 C 10.992188 94.832031 11.421875 94.363281 11.847656 93.890625 C 12.179688 93.523438 12.507812 93.15625 12.828125 92.785156 C 13.167969 92.398438 13.515625 92.019531 13.863281 91.644531 C 14.171875 91.308594 14.472656 90.96875 14.773438 90.625 C 15.117188 90.230469 15.46875 89.84375 15.820312 89.453125 C 15.96875 89.289062 16.113281 89.128906 16.257812 88.964844 C 16.480469 88.71875 16.703125 88.472656 16.925781 88.226562 C 17.257812 87.859375 17.589844 87.488281 17.914062 87.117188 C 18.269531 86.707031 18.636719 86.304688 19.003906 85.902344 C 19.195312 85.691406 19.386719 85.476562 19.574219 85.261719 C 19.863281 84.925781 20.160156 84.601562 20.460938 84.277344 C 20.816406 83.890625 21.164062 83.5 21.511719 83.105469 C 21.929688 82.625 22.359375 82.15625 22.785156 81.683594 C 23.117188 81.316406 23.445312 80.949219 23.765625 80.578125 C 24.105469 80.191406 24.453125 79.8125 24.800781 79.4375 C 25.109375 79.101562 25.410156 78.761719 25.710938 78.417969 C 26.128906 77.9375 26.558594 77.46875 26.984375 76.996094 C 27.316406 76.628906 27.644531 76.261719 27.964844 75.890625 C 28.304688 75.503906 28.652344 75.125 29 74.75 C 29.308594 74.414062 29.609375 74.074219 29.910156 73.730469 C 30.328125 73.25 30.757812 72.78125 31.183594 72.308594 C 31.515625 71.941406 31.84375 71.574219 32.164062 71.203125 C 32.503906 70.816406 32.851562 70.4375 33.199219 70.0625 C 33.507812 69.726562 33.808594 69.386719 34.109375 69.042969 C 34.453125 68.648438 34.804688 68.261719 35.15625 67.871094 C 35.304688 67.707031 35.449219 67.546875 35.59375 67.382812 C 35.816406 67.136719 36.039062 66.890625 36.261719 66.644531 C 36.648438 66.214844 37.035156 65.78125 37.414062 65.34375 C 37.632812 65.097656 37.851562 64.859375 38.074219 64.617188 C 38.394531 64.269531 38.699219 63.914062 38.996094 63.542969 C 39.535156 62.871094 40.128906 62.25 40.722656 61.621094 C 41.019531 61.757812 41.289062 61.925781 41.558594 62.105469 C 43.828125 63.605469 46.460938 64.699219 49.21875 64.746094 C 49.296875 64.75 49.375 64.75 49.453125 64.753906 C 53.234375 64.863281 56.976562 63.734375 59.863281 61.230469 C 59.941406 61.164062 60.019531 61.097656 60.101562 61.027344 C 60.863281 60.363281 61.640625 59.65625 62.15625 58.78125 C 62.921875 57.5 63.886719 57.011719 65.21875 56.398438 C 65.683594 56.175781 66.132812 55.925781 66.582031 55.675781 C 66.757812 55.578125 66.933594 55.484375 67.113281 55.386719 C 67.203125 55.335938 67.292969 55.289062 67.386719 55.234375 C 67.929688 54.941406 68.472656 54.648438 69.019531 54.359375 C 69.25 54.234375 69.484375 54.109375 69.71875 53.984375 C 69.773438 53.953125 69.832031 53.921875 69.890625 53.890625 C 70.914062 53.34375 71.929688 52.796875 72.949219 52.246094 C 73.105469 52.164062 73.105469 52.164062 73.261719 52.078125 C 73.570312 51.910156 73.875 51.746094 74.183594 51.582031 C 74.277344 51.527344 74.375 51.476562 74.472656 51.421875 C 75.121094 51.070312 75.765625 50.714844 76.402344 50.34375 C 76.835938 50.097656 76.835938 50.097656 77.050781 50.097656 C 77.050781 50.03125 77.050781 49.96875 77.050781 49.902344 C 76.988281 49.882812 76.925781 49.859375 76.863281 49.835938 C 76.441406 49.65625 76.0625 49.417969 75.671875 49.183594 C 75.585938 49.128906 75.5 49.078125 75.410156 49.023438 C 74.75 48.625 74.09375 48.210938 73.441406 47.796875 C 72.910156 47.460938 72.375 47.128906 71.839844 46.800781 C 71.730469 46.734375 71.730469 46.734375 71.621094 46.667969 C 71.28125 46.460938 70.945312 46.257812 70.605469 46.054688 C 70.542969 46.019531 70.484375 45.984375 70.421875 45.945312 C 70.261719 45.851562 70.101562 45.753906 69.941406 45.660156 C 69.871094 45.609375 69.800781 45.558594 69.726562 45.507812 C 69.726562 45.445312 69.726562 45.378906 69.726562 45.3125 C 69.789062 45.277344 69.851562 45.246094 69.917969 45.210938 C 70.632812 44.824219 71.332031 44.417969 72.027344 44 C 73.242188 43.277344 74.464844 42.570312 75.6875 41.863281 C 77.164062 41.015625 78.632812 40.160156 80.09375 39.292969 C 81.515625 38.445312 82.945312 37.609375 84.382812 36.785156 C 85.539062 36.121094 86.691406 35.449219 87.839844 34.769531 C 88.492188 34.382812 89.144531 34 89.800781 33.617188 C 90.789062 33.042969 91.773438 32.464844 92.757812 31.886719 C 92.878906 31.816406 93 31.746094 93.117188 31.675781 C 93.179688 31.640625 93.238281 31.605469 93.300781 31.570312 C 93.730469 31.320312 94.160156 31.066406 94.589844 30.816406 C 95.648438 30.195312 96.707031 29.574219 97.761719 28.941406 C 97.878906 28.871094 97.878906 28.871094 97.996094 28.800781 C 98.105469 28.734375 98.105469 28.734375 98.21875 28.664062 C 98.589844 28.445312 98.957031 28.222656 99.328125 28.003906 C 99.417969 27.949219 99.507812 27.898438 99.597656 27.84375 C 99.804688 27.734375 99.804688 27.734375 100 27.734375 Z M 100 27.734375 "/>
<path style=" stroke:none;fill-rule:nonzero;fill:rgb(61.56863%,80.392158%,22.745098%);fill-opacity:1;" d="M 50.488281 0 C 66.828125 0 83.164062 0 100 0 C 100 9.152344 100 18.304688 100 27.734375 C 98.886719 28.363281 98.886719 28.363281 97.753906 29.003906 C 97.285156 29.289062 97.285156 29.289062 96.820312 29.578125 C 95.332031 30.503906 93.804688 31.367188 92.289062 32.25 C 91.796875 32.535156 91.308594 32.820312 90.820312 33.105469 C 90.226562 33.453125 89.632812 33.796875 89.039062 34.144531 C 88.183594 34.644531 87.328125 35.140625 86.476562 35.644531 C 85.316406 36.328125 84.15625 37.003906 82.992188 37.679688 C 82.691406 37.855469 82.390625 38.03125 82.085938 38.207031 C 81.9375 38.292969 81.9375 38.292969 81.789062 38.382812 C 81.222656 38.710938 80.660156 39.042969 80.097656 39.375 C 79.546875 39.699219 78.996094 40.019531 78.441406 40.339844 C 77.582031 40.835938 76.726562 41.335938 75.871094 41.835938 C 74.941406 42.382812 74.007812 42.929688 73.074219 43.472656 C 72.429688 43.851562 71.78125 44.230469 71.136719 44.609375 C 71.015625 44.679688 70.898438 44.75 70.777344 44.820312 C 70.65625 44.890625 70.535156 44.964844 70.414062 45.035156 C 69.945312 45.3125 69.945312 45.3125 69.726562 45.3125 C 69.726562 45.375 69.726562 45.441406 69.726562 45.507812 C 69.789062 45.53125 69.855469 45.554688 69.921875 45.574219 C 70.304688 45.742188 70.644531 45.953125 70.996094 46.171875 C 71.074219 46.21875 71.148438 46.265625 71.226562 46.316406 C 71.476562 46.46875 71.722656 46.625 71.972656 46.777344 C 72.140625 46.878906 72.304688 46.984375 72.472656 47.085938 C 73.082031 47.460938 73.691406 47.839844 74.296875 48.21875 C 74.480469 48.332031 74.664062 48.445312 74.847656 48.558594 C 75.019531 48.664062 75.191406 48.773438 75.363281 48.878906 C 75.480469 48.953125 75.480469 48.953125 75.601562 49.027344 C 75.679688 49.074219 75.753906 49.121094 75.835938 49.171875 C 76.003906 49.273438 76.179688 49.375 76.351562 49.476562 C 76.441406 49.527344 76.53125 49.582031 76.621094 49.632812 C 76.703125 49.679688 76.785156 49.726562 76.871094 49.777344 C 76.929688 49.816406 76.988281 49.859375 77.050781 49.902344 C 77.050781 49.96875 77.050781 50.03125 77.050781 50.097656 C 76.984375 50.132812 76.921875 50.167969 76.855469 50.203125 C 75.683594 50.832031 74.511719 51.464844 73.339844 52.101562 C 72.210938 52.710938 71.082031 53.320312 69.949219 53.929688 C 69.417969 54.214844 68.890625 54.5 68.359375 54.785156 C 68.253906 54.839844 68.152344 54.898438 68.042969 54.953125 C 67.503906 55.246094 66.960938 55.539062 66.417969 55.832031 C 66.308594 55.890625 66.195312 55.949219 66.082031 56.011719 C 65.867188 56.128906 65.648438 56.246094 65.429688 56.363281 C 64.992188 56.601562 64.550781 56.839844 64.097656 57.050781 C 63.238281 57.453125 62.808594 57.910156 62.316406 58.71875 C 60.320312 61.78125 56.761719 63.757812 53.265625 64.53125 C 53.054688 64.570312 52.847656 64.609375 52.636719 64.648438 C 52.550781 64.667969 52.460938 64.6875 52.371094 64.707031 C 48.8125 65.453125 44.796875 64.316406 41.796875 62.402344 C 40.992188 61.855469 40.257812 61.214844 39.550781 60.546875 C 39.464844 60.46875 39.378906 60.386719 39.289062 60.304688 C 36.65625 57.785156 35.03125 53.988281 34.9375 50.359375 C 34.875 45.976562 36.277344 42.121094 39.300781 38.929688 C 39.628906 38.59375 39.964844 38.285156 40.332031 37.988281 C 40.417969 37.914062 40.507812 37.84375 40.597656 37.769531 C 42.472656 36.261719 44.625 35.261719 46.972656 34.765625 C 47.089844 34.738281 47.203125 34.707031 47.324219 34.675781 C 48.59375 34.386719 49.875 34.445312 51.171875 34.472656 C 51.164062 34.390625 51.160156 34.3125 51.152344 34.226562 C 51.0625 33 51.046875 31.773438 51.03125 30.539062 C 51.023438 30.144531 51.019531 29.746094 51.011719 29.347656 C 51 28.574219 50.992188 27.800781 50.980469 27.027344 C 50.964844 26.046875 50.953125 25.0625 50.9375 24.082031 C 50.929688 23.628906 50.921875 23.171875 50.917969 22.71875 C 50.898438 21.503906 50.871094 20.296875 50.816406 19.082031 C 50.769531 17.957031 50.753906 16.828125 50.738281 15.703125 C 50.730469 15.308594 50.726562 14.914062 50.71875 14.519531 C 50.707031 13.613281 50.695312 12.707031 50.679688 11.800781 C 50.667969 10.96875 50.65625 10.132812 50.644531 9.300781 C 50.636719 8.851562 50.628906 8.398438 50.625 7.949219 C 50.609375 6.855469 50.585938 5.765625 50.535156 4.675781 C 50.476562 3.117188 50.488281 1.558594 50.488281 0 Z M 50.488281 0 "/>
<path style=" stroke:none;fill-rule:nonzero;fill:rgb(11.372549%,39.607844%,59.607846%);fill-opacity:1;" d="M 100 27.734375 C 100 51.582031 100 75.429688 100 100 C 98.421875 100 96.84375 100 95.214844 100 C 94.167969 98.847656 94.167969 98.847656 93.726562 98.34375 C 93.527344 98.113281 93.320312 97.882812 93.117188 97.65625 C 92.796875 97.304688 92.480469 96.945312 92.167969 96.589844 C 91.964844 96.355469 91.757812 96.128906 91.554688 95.898438 C 91.234375 95.546875 90.917969 95.1875 90.605469 94.832031 C 90.402344 94.597656 90.195312 94.371094 89.992188 94.140625 C 89.671875 93.789062 89.355469 93.429688 89.042969 93.074219 C 88.839844 92.839844 88.632812 92.613281 88.429688 92.382812 C 88.109375 92.03125 87.792969 91.671875 87.480469 91.316406 C 87.277344 91.082031 87.070312 90.855469 86.867188 90.625 C 86.546875 90.273438 86.230469 89.914062 85.917969 89.558594 C 85.714844 89.324219 85.507812 89.097656 85.304688 88.867188 C 84.984375 88.515625 84.667969 88.15625 84.355469 87.800781 C 84.152344 87.566406 83.945312 87.339844 83.742188 87.109375 C 83.421875 86.757812 83.105469 86.398438 82.792969 86.042969 C 82.515625 85.726562 82.234375 85.414062 81.953125 85.101562 C 81.765625 84.894531 81.585938 84.6875 81.402344 84.480469 C 81.128906 84.164062 80.847656 83.855469 80.566406 83.546875 C 80.230469 83.175781 79.894531 82.800781 79.566406 82.425781 C 79.367188 82.195312 79.160156 81.964844 78.953125 81.738281 C 78.636719 81.386719 78.320312 81.027344 78.007812 80.671875 C 77.804688 80.4375 77.597656 80.210938 77.390625 79.980469 C 77.074219 79.628906 76.757812 79.269531 76.445312 78.914062 C 76.242188 78.679688 76.035156 78.453125 75.828125 78.222656 C 75.511719 77.871094 75.195312 77.511719 74.882812 77.15625 C 74.679688 76.921875 74.472656 76.695312 74.265625 76.464844 C 73.949219 76.113281 73.632812 75.753906 73.320312 75.398438 C 73.117188 75.164062 72.910156 74.9375 72.703125 74.707031 C 72.386719 74.355469 72.070312 73.996094 71.757812 73.640625 C 71.554688 73.40625 71.347656 73.179688 71.140625 72.949219 C 70.824219 72.597656 70.507812 72.238281 70.195312 71.882812 C 69.992188 71.648438 69.785156 71.421875 69.578125 71.191406 C 69.261719 70.839844 68.945312 70.480469 68.632812 70.125 C 68.429688 69.890625 68.222656 69.664062 68.015625 69.433594 C 67.699219 69.082031 67.382812 68.722656 67.070312 68.367188 C 66.867188 68.132812 66.660156 67.90625 66.453125 67.675781 C 66.136719 67.324219 65.820312 66.964844 65.507812 66.609375 C 65.304688 66.375 65.097656 66.148438 64.890625 65.917969 C 64.574219 65.566406 64.257812 65.207031 63.945312 64.851562 C 63.742188 64.617188 63.535156 64.390625 63.328125 64.160156 C 62.953125 63.742188 62.578125 63.316406 62.207031 62.890625 C 62.160156 62.835938 62.109375 62.78125 62.0625 62.722656 C 61.894531 62.53125 61.726562 62.339844 61.558594 62.144531 C 61.507812 62.085938 61.453125 62.023438 61.398438 61.957031 C 61.078125 61.589844 60.761719 61.214844 60.449219 60.839844 C 60.972656 60.222656 60.972656 60.222656 61.230469 59.953125 C 61.574219 59.582031 61.890625 59.230469 62.144531 58.792969 C 62.910156 57.507812 63.882812 57.011719 65.21875 56.398438 C 65.683594 56.175781 66.132812 55.925781 66.582031 55.675781 C 66.757812 55.578125 66.933594 55.484375 67.113281 55.386719 C 67.203125 55.335938 67.292969 55.289062 67.386719 55.234375 C 67.929688 54.941406 68.472656 54.648438 69.019531 54.359375 C 69.25 54.234375 69.484375 54.109375 69.71875 53.984375 C 69.773438 53.953125 69.832031 53.921875 69.890625 53.890625 C 70.914062 53.34375 71.929688 52.796875 72.949219 52.246094 C 73.050781 52.191406 73.15625 52.132812 73.261719 52.078125 C 73.570312 51.910156 73.875 51.746094 74.183594 51.582031 C 74.277344 51.527344 74.375 51.476562 74.472656 51.421875 C 75.121094 51.070312 75.765625 50.714844 76.402344 50.34375 C 76.835938 50.097656 76.835938 50.097656 77.050781 50.097656 C 77.050781 50.03125 77.050781 49.96875 77.050781 49.902344 C 76.957031 49.871094 76.957031 49.871094 76.863281 49.835938 C 76.441406 49.65625 76.0625 49.417969 75.671875 49.183594 C 75.585938 49.128906 75.5 49.078125 75.410156 49.023438 C 74.75 48.625 74.09375 48.210938 73.441406 47.796875 C 72.910156 47.460938 72.375 47.128906 71.839844 46.800781 C 71.765625 46.757812 71.695312 46.714844 71.621094 46.667969 C 71.28125 46.460938 70.945312 46.257812 70.605469 46.054688 C 70.515625 46 70.515625 46 70.421875 45.945312 C 70.261719 45.851562 70.101562 45.753906 69.941406 45.660156 C 69.835938 45.585938 69.835938 45.585938 69.726562 45.507812 C 69.726562 45.445312 69.726562 45.378906 69.726562 45.3125 C 69.789062 45.277344 69.851562 45.246094 69.917969 45.210938 C 70.632812 44.824219 71.332031 44.417969 72.027344 44 C 73.242188 43.277344 74.464844 42.570312 75.6875 41.863281 C 77.164062 41.015625 78.632812 40.160156 80.09375 39.292969 C 81.515625 38.445312 82.945312 37.609375 84.382812 36.785156 C 85.539062 36.121094 86.691406 35.449219 87.839844 34.769531 C 88.492188 34.382812 89.144531 34 89.800781 33.617188 C 90.789062 33.042969 91.773438 32.464844 92.757812 31.886719 C 92.878906 31.816406 93 31.746094 93.117188 31.675781 C 93.179688 31.640625 93.238281 31.605469 93.300781 31.570312 C 93.730469 31.320312 94.160156 31.066406 94.589844 30.816406 C 95.648438 30.195312 96.707031 29.574219 97.761719 28.941406 C 97.839844 28.894531 97.914062 28.847656 97.996094 28.800781 C 98.070312 28.757812 98.144531 28.710938 98.21875 28.664062 C 98.589844 28.445312 98.957031 28.222656 99.328125 28.003906 C 99.417969 27.949219 99.507812 27.898438 99.597656 27.84375 C 99.804688 27.734375 99.804688 27.734375 100 27.734375 Z M 100 27.734375 "/>
<path style=" stroke:none;fill-rule:nonzero;fill:rgb(41.568628%,60.392159%,6.666667%);fill-opacity:1;" d="M 5.078125 0 C 20.0625 0 35.046875 0 50.488281 0 C 50.710938 6.722656 50.710938 6.722656 50.742188 9.039062 C 50.746094 9.300781 50.75 9.5625 50.753906 9.824219 C 50.761719 10.421875 50.769531 11.023438 50.777344 11.625 C 50.792969 12.703125 50.808594 13.78125 50.824219 14.863281 C 50.832031 15.296875 50.835938 15.730469 50.84375 16.160156 C 50.859375 17.335938 50.890625 18.503906 50.941406 19.675781 C 50.992188 20.945312 51.011719 22.210938 51.027344 23.480469 C 51.03125 23.75 51.039062 24.019531 51.042969 24.285156 C 51.050781 24.84375 51.058594 25.402344 51.066406 25.960938 C 51.078125 26.601562 51.085938 27.242188 51.097656 27.882812 C 51.109375 28.574219 51.117188 29.261719 51.128906 29.953125 C 51.132812 30.148438 51.136719 30.34375 51.140625 30.539062 C 51.160156 31.851562 51.179688 33.160156 51.171875 34.472656 C 51.09375 34.472656 51.011719 34.476562 50.933594 34.476562 C 49.585938 34.507812 48.289062 34.546875 46.972656 34.863281 C 46.851562 34.890625 46.726562 34.914062 46.601562 34.941406 C 44.070312 35.496094 41.8125 36.738281 39.9375 38.511719 C 39.746094 38.671875 39.746094 38.671875 39.550781 38.671875 C 39.421875 38.542969 39.421875 38.542969 39.265625 38.355469 C 38.960938 37.996094 38.648438 37.648438 38.328125 37.304688 C 37.972656 36.917969 37.625 36.527344 37.277344 36.132812 C 36.933594 35.738281 36.582031 35.351562 36.230469 34.960938 C 35.394531 34.035156 35.394531 34.035156 35.023438 33.605469 C 34.730469 33.269531 34.429688 32.945312 34.132812 32.617188 C 33.773438 32.230469 33.425781 31.839844 33.078125 31.445312 C 32.734375 31.050781 32.382812 30.664062 32.03125 30.273438 C 31.195312 29.347656 31.195312 29.347656 30.824219 28.917969 C 30.53125 28.582031 30.230469 28.257812 29.929688 27.929688 C 29.574219 27.542969 29.226562 27.152344 28.878906 26.757812 C 28.535156 26.363281 28.183594 25.976562 27.832031 25.585938 C 26.996094 24.660156 26.996094 24.660156 26.625 24.230469 C 26.332031 23.894531 26.03125 23.570312 25.734375 23.242188 C 25.375 22.855469 25.027344 22.464844 24.679688 22.070312 C 24.335938 21.675781 23.984375 21.289062 23.632812 20.898438 C 22.796875 19.972656 22.796875 19.972656 22.425781 19.542969 C 22.132812 19.207031 21.832031 18.882812 21.53125 18.554688 C 21.175781 18.167969 20.828125 17.777344 20.480469 17.382812 C 20.136719 16.988281 19.785156 16.601562 19.433594 16.210938 C 19.214844 15.96875 18.996094 15.722656 18.773438 15.480469 C 18.625 15.3125 18.476562 15.148438 18.328125 14.984375 C 17.996094 14.617188 17.664062 14.246094 17.339844 13.875 C 16.984375 13.464844 16.617188 13.0625 16.25 12.660156 C 16.058594 12.449219 15.867188 12.234375 15.679688 12.019531 C 15.390625 11.683594 15.09375 11.359375 14.796875 11.035156 C 14.4375 10.648438 14.089844 10.257812 13.742188 9.863281 C 13.398438 9.46875 13.046875 9.082031 12.695312 8.691406 C 11.859375 7.765625 11.859375 7.765625 11.488281 7.335938 C 11.195312 7 10.894531 6.675781 10.59375 6.347656 C 10.238281 5.960938 9.890625 5.570312 9.542969 5.175781 C 9.199219 4.78125 8.847656 4.394531 8.496094 4.003906 C 7.660156 3.078125 7.660156 3.078125 7.289062 2.648438 C 6.996094 2.3125 6.695312 1.988281 6.398438 1.660156 C 5.738281 0.941406 5.738281 0.941406 5.457031 0.628906 C 5.402344 0.570312 5.351562 0.511719 5.296875 0.453125 C 5.175781 0.292969 5.175781 0.292969 5.078125 0 Z M 5.078125 0 "/>
<path style=" stroke:none;fill-rule:nonzero;fill:rgb(77.254903%,18.039216%,58.823532%);fill-opacity:1;" d="M 40.722656 61.621094 C 41.019531 61.757812 41.289062 61.925781 41.558594 62.105469 C 44.375 63.96875 47.070312 64.570312 50.488281 64.84375 C 50.488281 76.445312 50.488281 88.046875 50.488281 100 C 35.953125 100 21.421875 100 6.445312 100 C 6.835938 99.480469 7.214844 99.003906 7.660156 98.535156 C 7.773438 98.414062 7.886719 98.296875 7.996094 98.175781 C 8.050781 98.121094 8.101562 98.0625 8.15625 98.003906 C 8.378906 97.765625 8.59375 97.519531 8.808594 97.269531 C 9.042969 97.003906 9.28125 96.746094 9.523438 96.484375 C 9.878906 96.097656 10.226562 95.707031 10.574219 95.3125 C 10.992188 94.832031 11.421875 94.363281 11.847656 93.890625 C 12.179688 93.523438 12.507812 93.15625 12.828125 92.785156 C 13.167969 92.398438 13.515625 92.019531 13.863281 91.644531 C 14.171875 91.308594 14.472656 90.96875 14.773438 90.625 C 15.117188 90.230469 15.46875 89.84375 15.820312 89.453125 C 15.96875 89.289062 16.113281 89.128906 16.257812 88.964844 C 16.480469 88.71875 16.703125 88.472656 16.925781 88.226562 C 17.257812 87.859375 17.589844 87.488281 17.914062 87.117188 C 18.269531 86.707031 18.636719 86.304688 19.003906 85.902344 C 19.195312 85.691406 19.386719 85.476562 19.574219 85.261719 C 19.863281 84.925781 20.160156 84.601562 20.460938 84.277344 C 20.816406 83.890625 21.164062 83.5 21.511719 83.105469 C 21.929688 82.625 22.359375 82.15625 22.785156 81.683594 C 23.117188 81.316406 23.445312 80.949219 23.765625 80.578125 C 24.105469 80.191406 24.453125 79.8125 24.800781 79.4375 C 25.109375 79.101562 25.410156 78.761719 25.710938 78.417969 C 26.128906 77.9375 26.558594 77.46875 26.984375 76.996094 C 27.316406 76.628906 27.644531 76.261719 27.964844 75.890625 C 28.304688 75.503906 28.652344 75.125 29 74.75 C 29.308594 74.414062 29.609375 74.074219 29.910156 73.730469 C 30.328125 73.25 30.757812 72.78125 31.183594 72.308594 C 31.515625 71.941406 31.84375 71.574219 32.164062 71.203125 C 32.503906 70.816406 32.851562 70.4375 33.199219 70.0625 C 33.507812 69.726562 33.808594 69.386719 34.109375 69.042969 C 34.453125 68.648438 34.804688 68.261719 35.15625 67.871094 C 35.304688 67.707031 35.449219 67.546875 35.59375 67.382812 C 35.816406 67.136719 36.039062 66.890625 36.261719 66.644531 C 36.648438 66.214844 37.035156 65.78125 37.414062 65.34375 C 37.632812 65.097656 37.851562 64.859375 38.074219 64.617188 C 38.394531 64.269531 38.699219 63.914062 38.996094 63.542969 C 39.535156 62.871094 40.128906 62.25 40.722656 61.621094 Z M 40.722656 61.621094 "/>
<path style=" stroke:none;fill-rule:nonzero;fill:rgb(96.470588%,38.82353%,0%);fill-opacity:1;" d="M 35.15625 53.125 C 35.253906 53.15625 35.351562 53.1875 35.449219 53.222656 C 35.546875 53.507812 35.625 53.785156 35.699219 54.078125 C 36.511719 56.976562 38.324219 59.6875 40.722656 61.523438 C 40.566406 61.902344 40.308594 62.167969 40.03125 62.457031 C 39.6875 62.828125 39.355469 63.203125 39.039062 63.597656 C 38.601562 64.140625 38.125 64.648438 37.644531 65.152344 C 37.28125 65.535156 36.925781 65.925781 36.578125 66.328125 C 36.386719 66.546875 36.195312 66.765625 36 66.980469 C 35.925781 67.0625 35.851562 67.144531 35.773438 67.230469 C 35.699219 67.3125 35.625 67.394531 35.546875 67.480469 C 35.398438 67.644531 35.253906 67.804688 35.109375 67.96875 C 34.886719 68.214844 34.664062 68.460938 34.441406 68.707031 C 34.113281 69.074219 33.78125 69.441406 33.460938 69.8125 C 33.121094 70.199219 32.773438 70.578125 32.425781 70.953125 C 32.117188 71.289062 31.816406 71.628906 31.515625 71.972656 C 31.097656 72.453125 30.667969 72.921875 30.242188 73.394531 C 29.910156 73.761719 29.582031 74.128906 29.261719 74.5 C 28.921875 74.886719 28.574219 75.265625 28.226562 75.640625 C 27.917969 75.976562 27.617188 76.316406 27.316406 76.660156 C 26.898438 77.140625 26.46875 77.609375 26.042969 78.082031 C 25.710938 78.449219 25.382812 78.816406 25.0625 79.1875 C 24.722656 79.574219 24.375 79.953125 24.027344 80.328125 C 23.71875 80.664062 23.417969 81.003906 23.117188 81.347656 C 22.699219 81.828125 22.269531 82.296875 21.84375 82.769531 C 21.511719 83.136719 21.183594 83.503906 20.863281 83.875 C 20.523438 84.261719 20.175781 84.640625 19.828125 85.015625 C 19.519531 85.351562 19.21875 85.691406 18.917969 86.035156 C 18.5 86.515625 18.070312 86.984375 17.644531 87.457031 C 17.3125 87.824219 16.984375 88.191406 16.664062 88.5625 C 16.324219 88.949219 15.976562 89.328125 15.628906 89.703125 C 15.320312 90.039062 15.019531 90.378906 14.71875 90.722656 C 14.375 91.117188 14.023438 91.503906 13.671875 91.894531 C 13.523438 92.058594 13.378906 92.21875 13.234375 92.382812 C 13.011719 92.628906 12.789062 92.875 12.566406 93.121094 C 12.234375 93.488281 11.902344 93.859375 11.578125 94.230469 C 11.222656 94.640625 10.855469 95.042969 10.488281 95.445312 C 10.296875 95.65625 10.105469 95.871094 9.917969 96.085938 C 9.628906 96.421875 9.332031 96.746094 9.03125 97.070312 C 8.679688 97.457031 8.328125 97.84375 7.984375 98.242188 C 7.710938 98.554688 7.429688 98.863281 7.148438 99.171875 C 6.921875 99.410156 6.921875 99.410156 6.765625 99.71875 C 6.570312 99.953125 6.460938 99.996094 6.152344 100.050781 C 5.761719 100.066406 5.378906 100.066406 4.988281 100.058594 C 4.84375 100.054688 4.699219 100.054688 4.554688 100.054688 C 4.179688 100.050781 3.800781 100.046875 3.425781 100.039062 C 3.039062 100.035156 2.652344 100.03125 2.265625 100.027344 C 1.511719 100.023438 0.753906 100.011719 0 100 C -0.0390625 96.722656 -0.0664062 93.441406 -0.0859375 90.164062 C -0.0859375 89.777344 -0.0898438 89.390625 -0.0898438 89.003906 C -0.09375 88.886719 -0.09375 88.886719 -0.09375 88.769531 C -0.101562 87.519531 -0.113281 86.273438 -0.128906 85.027344 C -0.144531 83.746094 -0.152344 82.464844 -0.15625 81.183594 C -0.160156 80.394531 -0.164062 79.605469 -0.179688 78.816406 C -0.1875 78.207031 -0.191406 77.601562 -0.1875 76.996094 C -0.1875 76.746094 -0.191406 76.5 -0.199219 76.25 C -0.242188 74.425781 -0.242188 74.425781 0.160156 73.917969 C 0.550781 73.574219 0.980469 73.347656 1.453125 73.140625 C 1.765625 73 2.050781 72.820312 2.34375 72.636719 C 2.566406 72.507812 2.789062 72.382812 3.007812 72.253906 C 3.253906 72.109375 3.5 71.96875 3.746094 71.824219 C 3.835938 71.769531 3.835938 71.769531 3.929688 71.714844 C 4.605469 71.320312 5.273438 70.914062 5.9375 70.507812 C 6.699219 70.042969 7.460938 69.585938 8.238281 69.15625 C 8.804688 68.84375 9.355469 68.511719 9.910156 68.175781 C 10.691406 67.707031 11.476562 67.238281 12.261719 66.773438 C 12.328125 66.734375 12.394531 66.691406 12.464844 66.652344 C 13.480469 66.050781 14.492188 65.449219 15.507812 64.847656 C 16.351562 64.347656 17.191406 63.847656 18.035156 63.347656 C 18.101562 63.308594 18.167969 63.269531 18.234375 63.230469 C 18.699219 62.953125 19.164062 62.679688 19.628906 62.402344 C 20.160156 62.085938 20.691406 61.773438 21.222656 61.457031 C 21.320312 61.398438 21.320312 61.398438 21.417969 61.339844 C 22.410156 60.75 23.402344 60.164062 24.394531 59.574219 C 25.636719 58.839844 26.875 58.101562 28.117188 57.367188 C 28.574219 57.09375 29.035156 56.820312 29.492188 56.546875 C 29.816406 56.355469 30.140625 56.164062 30.460938 55.972656 C 31.074219 55.609375 31.683594 55.246094 32.296875 54.886719 C 32.585938 54.714844 32.875 54.542969 33.164062 54.371094 C 33.304688 54.289062 33.441406 54.207031 33.578125 54.125 C 33.769531 54.015625 33.960938 53.902344 34.152344 53.789062 C 34.261719 53.722656 34.371094 53.660156 34.484375 53.59375 C 34.761719 53.429688 34.761719 53.429688 34.980469 53.242188 C 35.039062 53.203125 35.097656 53.164062 35.15625 53.125 Z M 35.15625 53.125 "/>
<path style=" stroke:none;fill-rule:nonzero;fill:rgb(98.039216%,79.607844%,2.745098%);fill-opacity:1;" d="M 0 0 C 0.710938 -0.0195312 1.421875 -0.0351562 2.132812 -0.0429688 C 2.375 -0.046875 2.617188 -0.0507812 2.855469 -0.0585938 C 3.203125 -0.0703125 3.550781 -0.0742188 3.902344 -0.078125 C 4.0625 -0.0820312 4.0625 -0.0820312 4.226562 -0.0898438 C 4.964844 -0.0898438 4.964844 -0.0898438 5.296875 0.171875 C 5.46875 0.367188 5.617188 0.566406 5.761719 0.78125 C 5.902344 0.941406 6.046875 1.097656 6.1875 1.257812 C 6.300781 1.378906 6.300781 1.378906 6.414062 1.507812 C 6.527344 1.632812 6.527344 1.632812 6.640625 1.757812 C 6.859375 2 7.078125 2.246094 7.300781 2.488281 C 7.449219 2.65625 7.597656 2.820312 7.746094 2.984375 C 8.078125 3.351562 8.410156 3.722656 8.734375 4.09375 C 9.089844 4.503906 9.457031 4.90625 9.824219 5.308594 C 10.015625 5.519531 10.207031 5.734375 10.394531 5.949219 C 10.683594 6.285156 10.980469 6.609375 11.28125 6.933594 C 11.636719 7.320312 11.984375 7.710938 12.332031 8.105469 C 12.675781 8.5 13.027344 8.886719 13.378906 9.277344 C 14.214844 10.203125 14.214844 10.203125 14.585938 10.632812 C 14.878906 10.96875 15.179688 11.292969 15.476562 11.621094 C 15.835938 12.007812 16.183594 12.398438 16.53125 12.792969 C 16.875 13.1875 17.226562 13.574219 17.578125 13.964844 C 18.414062 14.890625 18.414062 14.890625 18.785156 15.320312 C 19.078125 15.65625 19.378906 15.980469 19.679688 16.308594 C 20.035156 16.695312 20.382812 17.085938 20.730469 17.480469 C 21.074219 17.875 21.425781 18.261719 21.777344 18.652344 C 21.996094 18.894531 22.214844 19.140625 22.4375 19.382812 C 22.585938 19.550781 22.734375 19.714844 22.882812 19.878906 C 23.214844 20.246094 23.546875 20.617188 23.871094 20.988281 C 24.226562 21.398438 24.59375 21.800781 24.960938 22.203125 C 25.152344 22.414062 25.34375 22.628906 25.53125 22.84375 C 25.820312 23.179688 26.117188 23.503906 26.414062 23.828125 C 26.773438 24.214844 27.121094 24.605469 27.46875 25 C 27.8125 25.394531 28.164062 25.78125 28.515625 26.171875 C 29.351562 27.097656 29.351562 27.097656 29.722656 27.527344 C 30.015625 27.863281 30.316406 28.1875 30.617188 28.515625 C 30.972656 28.902344 31.320312 29.292969 31.667969 29.6875 C 32.011719 30.082031 32.363281 30.46875 32.714844 30.859375 C 33.550781 31.785156 33.550781 31.785156 33.921875 32.214844 C 34.214844 32.550781 34.515625 32.875 34.8125 33.203125 C 35.171875 33.589844 35.519531 33.980469 35.867188 34.375 C 36.210938 34.769531 36.5625 35.15625 36.914062 35.546875 C 37.375 36.058594 37.835938 36.566406 38.285156 37.089844 C 38.441406 37.261719 38.597656 37.433594 38.761719 37.601562 C 38.8125 37.652344 38.859375 37.703125 38.910156 37.757812 C 39.011719 37.859375 39.109375 37.964844 39.210938 38.066406 C 39.546875 38.417969 39.546875 38.417969 39.5625 38.675781 C 39.40625 38.949219 39.203125 39.148438 38.984375 39.375 C 36.953125 41.511719 35.296875 44.671875 35.15625 47.65625 C 34.863281 47.753906 34.863281 47.753906 34.542969 47.605469 C 34.40625 47.527344 34.269531 47.449219 34.132812 47.371094 C 34.054688 47.324219 33.976562 47.28125 33.898438 47.238281 C 33.09375 46.777344 32.292969 46.300781 31.496094 45.824219 C 30.734375 45.371094 29.96875 44.925781 29.199219 44.484375 C 28.332031 43.984375 27.46875 43.480469 26.609375 42.96875 C 25.652344 42.398438 24.6875 41.835938 23.722656 41.28125 C 22.921875 40.820312 22.121094 40.355469 21.324219 39.886719 C 21.265625 39.851562 21.207031 39.816406 21.144531 39.78125 C 20.90625 39.640625 20.671875 39.503906 20.433594 39.363281 C 19.578125 38.859375 18.71875 38.359375 17.863281 37.863281 C 17.28125 37.519531 16.695312 37.179688 16.113281 36.839844 C 15.628906 36.558594 15.148438 36.277344 14.664062 35.996094 C 13.539062 35.339844 12.417969 34.683594 11.292969 34.023438 C 10.492188 33.554688 9.6875 33.085938 8.886719 32.617188 C 5.351562 30.554688 5.351562 30.554688 3.976562 29.734375 C 3.925781 29.703125 3.875 29.671875 3.824219 29.640625 C 3.679688 29.554688 3.53125 29.464844 3.386719 29.371094 C 2.871094 29.054688 2.355469 28.761719 1.800781 28.511719 C 0.210938 27.757812 0.210938 27.757812 -0.136719 27.070312 C -0.355469 26.28125 -0.304688 25.476562 -0.277344 24.667969 C -0.273438 24.398438 -0.277344 24.128906 -0.277344 23.859375 C -0.28125 23.28125 -0.273438 22.703125 -0.257812 22.125 C -0.238281 21.289062 -0.230469 20.453125 -0.230469 19.617188 C -0.222656 18.261719 -0.207031 16.90625 -0.183594 15.550781 C -0.160156 14.234375 -0.144531 12.917969 -0.132812 11.601562 C -0.132812 11.519531 -0.132812 11.441406 -0.132812 11.355469 C -0.128906 10.949219 -0.125 10.539062 -0.121094 10.132812 C -0.0976562 6.753906 -0.0546875 3.378906 0 0 Z M 0 0 "/>
<path style=" stroke:none;fill-rule:nonzero;fill:rgb(84.705883%,84.705883%,84.705883%);fill-opacity:1;" d="M 53.710938 34.863281 C 53.792969 34.882812 53.871094 34.902344 53.953125 34.921875 C 56.566406 35.566406 58.832031 36.898438 60.742188 38.769531 C 60.878906 38.898438 60.878906 38.898438 61.019531 39.03125 C 61.488281 39.484375 61.878906 39.925781 62.242188 40.464844 C 62.832031 41.292969 63.707031 41.730469 64.570312 42.226562 C 65 42.472656 65.417969 42.738281 65.839844 43 C 66.007812 43.105469 66.179688 43.210938 66.347656 43.316406 C 66.4375 43.371094 66.523438 43.425781 66.613281 43.480469 C 67.238281 43.867188 67.867188 44.25 68.492188 44.632812 C 69.230469 45.089844 69.96875 45.546875 70.707031 46.003906 C 71.496094 46.492188 72.285156 46.976562 73.078125 47.464844 C 73.847656 47.9375 74.621094 48.414062 75.386719 48.894531 C 75.464844 48.941406 75.539062 48.988281 75.621094 49.035156 C 75.691406 49.082031 75.765625 49.128906 75.84375 49.175781 C 76.011719 49.277344 76.179688 49.378906 76.347656 49.476562 C 76.4375 49.527344 76.527344 49.578125 76.621094 49.632812 C 76.742188 49.703125 76.742188 49.703125 76.871094 49.773438 C 76.929688 49.816406 76.988281 49.859375 77.050781 49.902344 C 77.050781 49.96875 77.050781 50.03125 77.050781 50.097656 C 76.984375 50.132812 76.921875 50.167969 76.855469 50.203125 C 75.683594 50.832031 74.511719 51.464844 73.339844 52.101562 C 72.210938 52.710938 71.082031 53.320312 69.949219 53.929688 C 69.417969 54.214844 68.890625 54.5 68.359375 54.785156 C 68.253906 54.839844 68.152344 54.898438 68.042969 54.953125 C 67.503906 55.246094 66.960938 55.539062 66.417969 55.832031 C 66.308594 55.890625 66.195312 55.949219 66.082031 56.011719 C 65.867188 56.128906 65.648438 56.246094 65.429688 56.363281 C 64.992188 56.601562 64.550781 56.839844 64.097656 57.050781 C 63.238281 57.453125 62.808594 57.910156 62.316406 58.71875 C 60.320312 61.78125 56.761719 63.757812 53.265625 64.53125 C 53.054688 64.570312 52.847656 64.609375 52.636719 64.648438 C 52.550781 64.667969 52.460938 64.6875 52.371094 64.707031 C 48.8125 65.453125 44.796875 64.316406 41.796875 62.402344 C 40.992188 61.855469 40.257812 61.214844 39.550781 60.546875 C 39.464844 60.46875 39.378906 60.386719 39.289062 60.304688 C 36.65625 57.785156 35.03125 53.988281 34.9375 50.359375 C 34.875 45.976562 36.277344 42.121094 39.300781 38.929688 C 39.628906 38.59375 39.964844 38.285156 40.332031 37.988281 C 40.464844 37.878906 40.464844 37.878906 40.597656 37.769531 C 42.472656 36.257812 44.625 35.265625 46.972656 34.765625 C 47.085938 34.738281 47.195312 34.707031 47.308594 34.675781 C 49.363281 34.195312 51.679688 34.355469 53.710938 34.863281 Z M 53.710938 34.863281 "/>
<path style=" stroke:none;fill-rule:nonzero;fill:rgb(26.274511%,59.607846%,79.215688%);fill-opacity:1;" d="M 68.144531 55.421875 C 68.316406 55.546875 68.484375 55.675781 68.648438 55.808594 C 69.039062 56.097656 69.46875 56.316406 69.890625 56.550781 C 70.085938 56.660156 70.28125 56.769531 70.476562 56.878906 C 71.121094 57.242188 71.773438 57.605469 72.425781 57.964844 C 73.457031 58.535156 74.480469 59.117188 75.503906 59.703125 C 75.8125 59.882812 76.125 60.058594 76.433594 60.234375 C 77.535156 60.863281 78.632812 61.492188 79.722656 62.132812 C 80.539062 62.613281 81.367188 63.074219 82.199219 63.523438 C 82.960938 63.933594 83.707031 64.371094 84.457031 64.808594 C 85.164062 65.222656 85.875 65.628906 86.589844 66.027344 C 87.585938 66.582031 88.574219 67.144531 89.5625 67.710938 C 89.875 67.886719 90.183594 68.066406 90.496094 68.242188 C 90.730469 68.375 90.960938 68.507812 91.191406 68.640625 C 91.25 68.671875 91.308594 68.707031 91.367188 68.742188 C 92.175781 69.203125 92.984375 69.667969 93.785156 70.140625 C 94.601562 70.621094 95.425781 71.078125 96.257812 71.527344 C 96.957031 71.90625 97.652344 72.304688 98.339844 72.703125 C 98.4375 72.761719 98.535156 72.820312 98.636719 72.878906 C 99.164062 73.1875 99.164062 73.1875 99.414062 73.339844 C 99.515625 73.386719 99.613281 73.433594 99.71875 73.480469 C 100.03125 73.757812 100.042969 73.796875 100.070312 74.1875 C 100.074219 74.382812 100.074219 74.578125 100.070312 74.773438 C 100.070312 74.882812 100.070312 74.988281 100.070312 75.101562 C 100.074219 75.460938 100.070312 75.824219 100.066406 76.1875 C 100.066406 76.445312 100.066406 76.703125 100.066406 76.960938 C 100.066406 77.519531 100.066406 78.078125 100.0625 78.636719 C 100.058594 79.445312 100.054688 80.25 100.054688 81.058594 C 100.054688 82.367188 100.050781 83.675781 100.042969 84.984375 C 100.039062 86.253906 100.035156 87.527344 100.03125 88.796875 C 100.03125 88.914062 100.03125 88.914062 100.03125 89.035156 C 100.03125 89.429688 100.03125 89.820312 100.03125 90.214844 C 100.023438 93.476562 100.011719 96.738281 100 100 C 99.335938 100.027344 98.671875 100.046875 98.007812 100.058594 C 97.785156 100.0625 97.558594 100.070312 97.332031 100.082031 C 95.355469 100.160156 95.355469 100.160156 94.855469 99.769531 C 94.609375 99.5 94.425781 99.238281 94.238281 98.925781 C 94.125 98.792969 94.007812 98.660156 93.890625 98.527344 C 93.835938 98.46875 93.785156 98.40625 93.726562 98.34375 C 93.527344 98.113281 93.320312 97.882812 93.117188 97.65625 C 92.796875 97.304688 92.480469 96.945312 92.167969 96.589844 C 91.964844 96.355469 91.757812 96.128906 91.554688 95.898438 C 91.234375 95.546875 90.917969 95.1875 90.605469 94.832031 C 90.402344 94.597656 90.195312 94.371094 89.992188 94.140625 C 89.671875 93.789062 89.355469 93.429688 89.042969 93.074219 C 88.839844 92.839844 88.632812 92.613281 88.429688 92.382812 C 88.109375 92.03125 87.792969 91.671875 87.480469 91.316406 C 87.277344 91.082031 87.070312 90.855469 86.867188 90.625 C 86.546875 90.273438 86.230469 89.914062 85.917969 89.558594 C 85.714844 89.324219 85.507812 89.097656 85.304688 88.867188 C 84.984375 88.515625 84.667969 88.15625 84.355469 87.800781 C 84.152344 87.566406 83.945312 87.339844 83.742188 87.109375 C 83.421875 86.757812 83.105469 86.398438 82.792969 86.042969 C 82.515625 85.726562 82.234375 85.414062 81.953125 85.101562 C 81.765625 84.894531 81.585938 84.6875 81.402344 84.480469 C 81.128906 84.164062 80.847656 83.855469 80.566406 83.546875 C 80.230469 83.175781 79.894531 82.800781 79.566406 82.425781 C 79.367188 82.195312 79.160156 81.964844 78.953125 81.738281 C 78.636719 81.386719 78.320312 81.027344 78.007812 80.671875 C 77.804688 80.4375 77.597656 80.210938 77.390625 79.980469 C 77.074219 79.628906 76.757812 79.269531 76.445312 78.914062 C 76.242188 78.679688 76.035156 78.453125 75.828125 78.222656 C 75.511719 77.871094 75.195312 77.511719 74.882812 77.15625 C 74.679688 76.921875 74.472656 76.695312 74.265625 76.464844 C 73.949219 76.113281 73.632812 75.753906 73.320312 75.398438 C 73.117188 75.164062 72.910156 74.9375 72.703125 74.707031 C 72.386719 74.355469 72.070312 73.996094 71.757812 73.640625 C 71.554688 73.40625 71.347656 73.179688 71.140625 72.949219 C 70.824219 72.597656 70.507812 72.238281 70.195312 71.882812 C 69.992188 71.648438 69.785156 71.421875 69.578125 71.191406 C 69.261719 70.839844 68.945312 70.480469 68.632812 70.125 C 68.429688 69.890625 68.222656 69.664062 68.015625 69.433594 C 67.699219 69.082031 67.382812 68.722656 67.070312 68.367188 C 66.867188 68.132812 66.660156 67.90625 66.453125 67.675781 C 66.136719 67.324219 65.820312 66.964844 65.507812 66.609375 C 65.304688 66.375 65.097656 66.148438 64.890625 65.917969 C 64.574219 65.566406 64.257812 65.207031 63.945312 64.851562 C 63.742188 64.617188 63.535156 64.390625 63.328125 64.160156 C 62.953125 63.742188 62.578125 63.316406 62.207031 62.890625 C 62.160156 62.835938 62.109375 62.78125 62.0625 62.722656 C 61.894531 62.53125 61.726562 62.339844 61.558594 62.144531 C 61.480469 62.054688 61.480469 62.054688 61.398438 61.957031 C 61.078125 61.589844 60.761719 61.214844 60.449219 60.839844 C 60.972656 60.222656 60.972656 60.222656 61.230469 59.953125 C 61.574219 59.582031 61.890625 59.230469 62.144531 58.792969 C 62.910156 57.503906 63.882812 57.015625 65.21875 56.402344 C 65.519531 56.253906 65.792969 56.089844 66.070312 55.90625 C 67.433594 55.015625 67.433594 55.015625 68.144531 55.421875 Z M 68.144531 55.421875 "/>
<path style=" stroke:none;fill-rule:nonzero;fill:rgb(80.392158%,93.333334%,41.568628%);fill-opacity:1;" d="M 96.582031 0 C 97.710938 0 98.835938 0 100 0 C 100 9.152344 100 18.304688 100 27.734375 C 99.257812 28.152344 98.515625 28.570312 97.753906 29.003906 C 97.285156 29.289062 97.285156 29.289062 96.820312 29.578125 C 95.332031 30.503906 93.804688 31.367188 92.289062 32.25 C 91.796875 32.535156 91.308594 32.820312 90.820312 33.105469 C 90.226562 33.453125 89.632812 33.796875 89.039062 34.144531 C 88.183594 34.644531 87.328125 35.140625 86.476562 35.644531 C 85.316406 36.328125 84.15625 37.003906 82.992188 37.679688 C 82.691406 37.855469 82.390625 38.03125 82.085938 38.207031 C 81.988281 38.265625 81.890625 38.324219 81.789062 38.382812 C 81.222656 38.710938 80.660156 39.042969 80.097656 39.375 C 79.546875 39.699219 78.996094 40.019531 78.441406 40.339844 C 77.582031 40.835938 76.726562 41.335938 75.871094 41.835938 C 74.941406 42.382812 74.007812 42.929688 73.074219 43.472656 C 72.644531 43.722656 72.214844 43.976562 71.785156 44.230469 C 71.675781 44.296875 71.675781 44.296875 71.5625 44.363281 C 71.429688 44.441406 71.292969 44.523438 71.164062 44.601562 C 71.042969 44.671875 70.921875 44.742188 70.800781 44.808594 C 70.65625 44.894531 70.515625 44.980469 70.375 45.074219 C 69.765625 45.441406 69.765625 45.441406 69.402344 45.359375 C 69.15625 45.234375 68.941406 45.09375 68.71875 44.933594 C 68.546875 44.820312 68.375 44.707031 68.203125 44.59375 C 68.113281 44.535156 68.027344 44.476562 67.9375 44.414062 C 67.527344 44.140625 67.109375 43.886719 66.6875 43.628906 C 66.519531 43.523438 66.347656 43.417969 66.179688 43.3125 C 65.769531 43.058594 65.363281 42.808594 64.953125 42.558594 C 64.777344 42.453125 64.605469 42.347656 64.433594 42.242188 C 64.269531 42.140625 64.101562 42.039062 63.9375 41.941406 C 63.144531 41.457031 62.527344 41.003906 61.976562 40.253906 C 61.910156 40.164062 61.910156 40.164062 61.84375 40.074219 C 61.734375 39.933594 61.628906 39.792969 61.523438 39.648438 C 61.679688 39.285156 61.90625 39.035156 62.175781 38.746094 C 62.46875 38.429688 62.761719 38.113281 63.042969 37.785156 C 63.296875 37.492188 63.558594 37.203125 63.820312 36.914062 C 64.082031 36.621094 64.34375 36.332031 64.601562 36.035156 C 64.929688 35.65625 65.269531 35.28125 65.605469 34.90625 C 65.792969 34.699219 65.976562 34.488281 66.164062 34.277344 C 66.636719 33.730469 67.125 33.195312 67.609375 32.660156 C 68 32.226562 68.386719 31.792969 68.769531 31.355469 C 69.046875 31.039062 69.328125 30.726562 69.609375 30.414062 C 69.796875 30.207031 69.980469 29.996094 70.164062 29.785156 C 70.496094 29.40625 70.835938 29.03125 71.171875 28.65625 C 71.359375 28.449219 71.542969 28.238281 71.726562 28.027344 C 72.058594 27.648438 72.398438 27.273438 72.734375 26.898438 C 72.921875 26.691406 73.105469 26.480469 73.289062 26.269531 C 73.621094 25.890625 73.960938 25.515625 74.296875 25.140625 C 74.484375 24.933594 74.667969 24.722656 74.851562 24.511719 C 75.183594 24.132812 75.523438 23.757812 75.859375 23.382812 C 76.046875 23.175781 76.230469 22.964844 76.414062 22.753906 C 76.746094 22.375 77.085938 22 77.421875 21.625 C 77.609375 21.417969 77.792969 21.207031 77.976562 20.996094 C 78.308594 20.617188 78.648438 20.242188 78.984375 19.867188 C 79.171875 19.660156 79.355469 19.449219 79.539062 19.238281 C 79.871094 18.859375 80.210938 18.484375 80.546875 18.109375 C 80.734375 17.902344 80.917969 17.691406 81.101562 17.480469 C 81.433594 17.101562 81.773438 16.726562 82.109375 16.351562 C 82.296875 16.144531 82.480469 15.933594 82.664062 15.722656 C 82.996094 15.34375 83.335938 14.96875 83.671875 14.59375 C 83.859375 14.386719 84.042969 14.175781 84.226562 13.964844 C 84.558594 13.585938 84.898438 13.210938 85.234375 12.835938 C 85.421875 12.628906 85.601562 12.421875 85.785156 12.214844 C 86.140625 11.804688 86.507812 11.402344 86.875 11.003906 C 87.125 10.722656 87.375 10.441406 87.621094 10.160156 C 87.820312 9.929688 88.027344 9.699219 88.234375 9.472656 C 88.496094 9.179688 88.757812 8.890625 89.015625 8.59375 C 89.34375 8.214844 89.683594 7.839844 90.019531 7.464844 C 90.207031 7.257812 90.390625 7.046875 90.578125 6.835938 C 90.90625 6.457031 91.246094 6.082031 91.582031 5.707031 C 91.769531 5.5 91.953125 5.289062 92.140625 5.078125 C 92.46875 4.699219 92.808594 4.324219 93.144531 3.949219 C 93.332031 3.742188 93.515625 3.53125 93.703125 3.320312 C 94.03125 2.941406 94.371094 2.566406 94.707031 2.191406 C 94.949219 1.921875 95.1875 1.648438 95.425781 1.375 C 95.714844 1.046875 96.011719 0.722656 96.304688 0.402344 C 96.488281 0.207031 96.488281 0.207031 96.582031 0 Z M 96.582031 0 "/>
<path style=" stroke:none;fill-rule:nonzero;fill:rgb(97.647059%,97.254902%,96.470588%);fill-opacity:1;" d="M 53.710938 34.863281 C 53.792969 34.882812 53.871094 34.902344 53.953125 34.921875 C 56.566406 35.566406 58.832031 36.898438 60.742188 38.769531 C 60.878906 38.898438 60.878906 38.898438 61.019531 39.03125 C 61.488281 39.484375 61.878906 39.925781 62.242188 40.464844 C 62.832031 41.292969 63.707031 41.730469 64.570312 42.226562 C 65 42.472656 65.417969 42.738281 65.839844 43 C 66.007812 43.105469 66.179688 43.210938 66.347656 43.316406 C 66.4375 43.371094 66.523438 43.425781 66.613281 43.480469 C 67.238281 43.867188 67.867188 44.25 68.492188 44.632812 C 69.230469 45.089844 69.96875 45.546875 70.707031 46.003906 C 71.496094 46.492188 72.285156 46.976562 73.078125 47.464844 C 73.847656 47.9375 74.621094 48.414062 75.386719 48.894531 C 75.464844 48.941406 75.539062 48.988281 75.621094 49.035156 C 75.691406 49.082031 75.765625 49.128906 75.84375 49.175781 C 76.011719 49.277344 76.179688 49.378906 76.347656 49.476562 C 76.4375 49.527344 76.527344 49.578125 76.621094 49.632812 C 76.742188 49.703125 76.742188 49.703125 76.871094 49.773438 C 76.929688 49.816406 76.988281 49.859375 77.050781 49.902344 C 77.050781 49.96875 77.050781 50.03125 77.050781 50.097656 C 76.984375 50.132812 76.921875 50.167969 76.855469 50.203125 C 75.683594 50.832031 74.511719 51.464844 73.339844 52.101562 C 72.210938 52.710938 71.082031 53.320312 69.949219 53.929688 C 69.417969 54.214844 68.890625 54.5 68.359375 54.785156 C 68.253906 54.839844 68.152344 54.898438 68.042969 54.953125 C 67.503906 55.246094 66.960938 55.539062 66.417969 55.832031 C 66.308594 55.890625 66.195312 55.949219 66.082031 56.011719 C 65.867188 56.128906 65.648438 56.246094 65.429688 56.363281 C 64.992188 56.601562 64.550781 56.839844 64.097656 57.050781 C 63.238281 57.453125 62.808594 57.910156 62.316406 58.71875 C 60.320312 61.78125 56.761719 63.757812 53.265625 64.53125 C 53.054688 64.570312 52.847656 64.609375 52.636719 64.648438 C 52.550781 64.667969 52.460938 64.6875 52.371094 64.707031 C 48.8125 65.453125 44.796875 64.316406 41.796875 62.402344 C 40.992188 61.855469 40.257812 61.214844 39.550781 60.546875 C 39.464844 60.46875 39.378906 60.386719 39.289062 60.304688 C 36.65625 57.785156 35.03125 53.988281 34.9375 50.359375 C 34.875 45.976562 36.277344 42.121094 39.300781 38.929688 C 39.628906 38.59375 39.964844 38.285156 40.332031 37.988281 C 40.464844 37.878906 40.464844 37.878906 40.597656 37.769531 C 42.472656 36.257812 44.625 35.265625 46.972656 34.765625 C 47.085938 34.738281 47.195312 34.707031 47.308594 34.675781 C 49.363281 34.195312 51.679688 34.355469 53.710938 34.863281 Z M 39.648438 39.0625 C 39.582031 39.125 39.515625 39.183594 39.449219 39.246094 C 36.78125 41.789062 35.363281 45.605469 35.230469 49.242188 C 35.203125 50.578125 35.351562 51.820312 35.644531 53.125 C 35.660156 53.195312 35.671875 53.261719 35.6875 53.332031 C 36.25 55.9375 37.746094 58.242188 39.550781 60.15625 C 39.640625 60.253906 39.640625 60.253906 39.734375 60.355469 C 42.203125 62.941406 46 64.46875 49.542969 64.570312 C 53.726562 64.628906 57.519531 63.214844 60.5625 60.328125 C 62.53125 58.40625 63.789062 56.152344 64.550781 53.515625 C 64.582031 53.40625 64.617188 53.296875 64.648438 53.179688 C 65.613281 49.671875 65.019531 45.660156 63.273438 42.492188 C 61.195312 38.855469 57.894531 36.324219 53.867188 35.222656 C 53.265625 35.0625 52.667969 34.941406 52.050781 34.863281 C 51.96875 34.851562 51.886719 34.839844 51.800781 34.832031 C 47.222656 34.316406 42.957031 35.941406 39.648438 39.0625 Z M 39.648438 39.0625 "/>
<path style=" stroke:none;fill-rule:nonzero;fill:rgb(80.392158%,80.392158%,80.392158%);fill-opacity:1;" d="M 65.332031 49.316406 C 66.386719 49.304688 67.429688 49.335938 68.480469 49.394531 C 68.597656 49.402344 68.597656 49.402344 68.71875 49.410156 C 70.484375 49.503906 72.246094 49.628906 74.007812 49.753906 C 74.761719 49.808594 75.515625 49.855469 76.269531 49.902344 C 76.019531 50.1875 75.742188 50.332031 75.402344 50.503906 C 75.347656 50.53125 75.289062 50.5625 75.234375 50.589844 C 75.109375 50.652344 74.988281 50.714844 74.867188 50.777344 C 74.542969 50.941406 74.222656 51.105469 73.898438 51.269531 C 73.832031 51.304688 73.769531 51.335938 73.703125 51.371094 C 73.140625 51.660156 72.585938 51.960938 72.035156 52.265625 C 71.316406 52.660156 70.597656 53.042969 69.875 53.417969 C 69.046875 53.847656 68.226562 54.285156 67.414062 54.734375 C 66.644531 55.15625 65.867188 55.5625 65.085938 55.964844 C 64.953125 56.035156 64.953125 56.035156 64.820312 56.105469 C 64.742188 56.144531 64.664062 56.183594 64.582031 56.226562 C 64.417969 56.316406 64.253906 56.410156 64.09375 56.507812 C 63.867188 56.640625 63.867188 56.640625 63.671875 56.640625 C 63.824219 56.15625 63.992188 55.695312 64.195312 55.230469 C 64.988281 53.347656 65.242188 51.339844 65.332031 49.316406 Z M 65.332031 49.316406 "/>
<path style=" stroke:none;fill-rule:nonzero;fill:rgb(89.411765%,89.411765%,89.411765%);fill-opacity:1;" d="M 63.183594 41.796875 C 63.660156 41.960938 64.054688 42.222656 64.472656 42.492188 C 65.226562 42.976562 65.988281 43.453125 66.753906 43.921875 C 66.914062 44.019531 66.914062 44.019531 67.078125 44.121094 C 67.296875 44.253906 67.515625 44.390625 67.734375 44.523438 C 68.28125 44.859375 68.824219 45.191406 69.367188 45.527344 C 69.472656 45.589844 69.578125 45.65625 69.6875 45.722656 C 70.417969 46.171875 71.148438 46.625 71.875 47.074219 C 72.351562 47.371094 72.832031 47.667969 73.308594 47.960938 C 73.367188 47.996094 73.421875 48.03125 73.480469 48.066406 C 73.753906 48.234375 74.027344 48.402344 74.300781 48.570312 C 74.804688 48.878906 75.308594 49.191406 75.808594 49.503906 C 75.898438 49.558594 75.984375 49.613281 76.078125 49.671875 C 76.140625 49.714844 76.203125 49.757812 76.269531 49.804688 C 76.269531 49.835938 76.269531 49.867188 76.269531 49.902344 C 75.203125 49.917969 74.152344 49.875 73.089844 49.792969 C 72.636719 49.757812 72.183594 49.726562 71.730469 49.695312 C 71.636719 49.6875 71.539062 49.679688 71.441406 49.671875 C 70.179688 49.585938 68.917969 49.515625 67.65625 49.445312 C 67.539062 49.4375 67.425781 49.429688 67.304688 49.425781 C 66.648438 49.386719 65.988281 49.351562 65.332031 49.316406 C 65.320312 49.214844 65.320312 49.214844 65.308594 49.109375 C 65.273438 48.789062 65.234375 48.472656 65.199219 48.15625 C 65.1875 48.050781 65.175781 47.941406 65.164062 47.828125 C 64.933594 45.851562 64.308594 44.007812 63.332031 42.277344 C 63.183594 41.992188 63.183594 41.992188 63.183594 41.796875 Z M 63.183594 41.796875 "/>
<path style=" stroke:none;fill-rule:nonzero;fill:rgb(89.411765%,89.411765%,89.411765%);fill-opacity:1;" d="M 76.464844 49.902344 C 76.464844 49.96875 76.464844 50.03125 76.464844 50.097656 C 76.382812 50.140625 76.296875 50.1875 76.210938 50.230469 C 74.800781 50.980469 73.390625 51.726562 71.988281 52.496094 C 71.277344 52.882812 70.5625 53.269531 69.847656 53.648438 C 69.789062 53.679688 69.734375 53.710938 69.675781 53.742188 C 69.558594 53.804688 69.441406 53.867188 69.324219 53.929688 C 69.238281 53.976562 69.238281 53.976562 69.148438 54.023438 C 69.09375 54.054688 69.035156 54.085938 68.976562 54.117188 C 67.171875 55.082031 65.371094 56.054688 63.574219 57.03125 C 63.542969 56.96875 63.507812 56.902344 63.476562 56.835938 C 63.628906 56.53125 63.925781 56.453125 64.222656 56.3125 C 64.363281 56.242188 64.507812 56.171875 64.652344 56.101562 C 64.730469 56.0625 64.808594 56.023438 64.886719 55.984375 C 66.15625 55.351562 67.40625 54.679688 68.648438 53.996094 C 69.480469 53.539062 70.316406 53.097656 71.15625 52.65625 C 72.171875 52.117188 73.191406 51.578125 74.207031 51.035156 C 74.378906 50.941406 74.550781 50.851562 74.722656 50.757812 C 75.148438 50.53125 75.574219 50.300781 75.992188 50.058594 C 76.269531 49.902344 76.269531 49.902344 76.464844 49.902344 Z M 76.464844 49.902344 "/>
</g>
</svg>
