<svg width="16" height="16" viewBox="0 0 16 16" fill="none" xmlns="http://www.w3.org/2000/svg">
<path d="M7.99676 11.5171L5.23009 13.1838C5.10787 13.2616 4.98009 13.2949 4.84675 13.2838C4.71342 13.2727 4.59675 13.2282 4.49675 13.1505C4.39675 13.0727 4.31898 12.9755 4.26342 12.8588C4.20787 12.7421 4.19675 12.6116 4.23009 12.4671L4.96342 9.31712L2.51342 7.20046C2.40231 7.10046 2.33287 6.98657 2.30509 6.85879C2.27731 6.73101 2.28564 6.60601 2.33009 6.48379C2.37453 6.36157 2.4412 6.26157 2.53009 6.18379C2.61898 6.10601 2.7412 6.05601 2.89675 6.03379L6.13009 5.75046L7.38009 2.78379C7.43564 2.65046 7.52176 2.55046 7.63842 2.48379C7.75509 2.41712 7.87453 2.38379 7.99676 2.38379C8.11898 2.38379 8.23842 2.41712 8.35509 2.48379C8.47176 2.55046 8.55787 2.65046 8.61342 2.78379L9.86342 5.75046L13.0968 6.03379C13.2523 6.05601 13.3745 6.10601 13.4634 6.18379C13.5523 6.26157 13.619 6.36157 13.6634 6.48379C13.7079 6.60601 13.7162 6.73101 13.6884 6.85879C13.6606 6.98657 13.5912 7.10046 13.4801 7.20046L11.0301 9.31712L11.7634 12.4671C11.7968 12.6116 11.7856 12.7421 11.7301 12.8588C11.6745 12.9755 11.5968 13.0727 11.4968 13.1505C11.3968 13.2282 11.2801 13.2727 11.1468 13.2838C11.0134 13.2949 10.8856 13.2616 10.7634 13.1838L7.99676 11.5171Z" fill="#FFC700"/>
</svg>
