<svg width="100" height="100" viewBox="0 0 100 100" fill="none" xmlns="http://www.w3.org/2000/svg">
<g clip-path="url(#clip0_480_76)">
<rect width="100" height="100" rx="8" fill="url(#paint0_radial_480_76)"/>
<g filter="url(#filter0_f_480_76)">
<path d="M34.8119 65.9135C34.5387 65.2306 25.3879 52.4832 32.3079 31.9508C36.2687 22.982 38.4995 30.2207 40.8214 44.425C41.1856 46.3371 44.3724 71.3311 47.969 81.2559C48.2877 82.394 50.0177 84.9435 52.5217 84.4427C58.0759 84.4427 58.3491 68.8271 61.0806 49.0232C62.6285 46.0184 62.9928 47.6574 65.1325 57.6277C65.4057 58.6292 66.6804 66.9606 71.6883 66.4598C76.1043 66.1411 79.8375 56.4895 78.8359 45.0168C78.927 44.0153 76.9694 41.7845 74.693 43.6966C74.0557 44.1518 73.6915 48.1582 73.6915 50.2068C73.4729 53.3755 71.8249 61.0877 69.7307 54.5774C69.1388 53.5758 67.2722 36.1392 62.492 33.4987C57.4841 32.1329 56.1183 37.2318 53.9785 57.0813C53.3816 62.6186 51.8843 66.1866 50.6551 59.3121C48.9251 53.7579 47.6048 8.73228 33.6737 16.2441C23.4758 19.7497 12.7316 54.0311 28.4382 69.2824C33.7648 72.105 35.4493 69.0093 34.8119 65.9135Z" fill="black" fill-opacity="0.5"/>
</g>
<g filter="url(#filter1_i_480_76)">
<path d="M34.8119 65.9135C34.5387 65.2306 25.3879 52.4832 32.3079 31.9508C36.2687 22.982 38.4995 30.2207 40.8214 44.425C41.1856 46.3371 44.3724 71.3311 47.969 81.2559C48.2877 82.394 50.0177 84.9435 52.5217 84.4427C58.0759 84.4427 58.3491 68.8271 61.0806 49.0232C62.6285 46.0184 62.9928 47.6574 65.1325 57.6277C65.4057 58.6292 66.6804 66.9606 71.6883 66.4598C76.1043 66.1411 79.8375 56.4895 78.8359 45.0168C78.927 44.0153 76.9694 41.7845 74.693 43.6966C74.0557 44.1518 73.6915 48.1582 73.6915 50.2068C73.4729 53.3755 71.8249 61.0877 69.7307 54.5774C69.1388 53.5758 67.2722 36.1392 62.492 33.4987C57.4841 32.1329 56.1183 37.2318 53.9785 57.0813C53.3816 62.6186 51.8843 66.1866 50.6551 59.3121C48.9251 53.7579 47.6048 8.73228 33.6737 16.2441C23.4758 19.7497 12.7316 54.0311 28.4382 69.2824C33.7648 72.105 35.4493 69.0093 34.8119 65.9135Z" fill="white"/>
</g>
</g>
<defs>
<filter id="filter0_f_480_76" x="0.498413" y="-4.59863" width="98.5016" height="109.106" filterUnits="userSpaceOnUse" color-interpolation-filters="sRGB">
<feFlood flood-opacity="0" result="BackgroundImageFix"/>
<feBlend mode="normal" in="SourceGraphic" in2="BackgroundImageFix" result="shape"/>
<feGaussianBlur stdDeviation="10" result="effect1_foregroundBlur_480_76"/>
</filter>
<filter id="filter1_i_480_76" x="20.4984" y="15.4014" width="61.5016" height="72.1057" filterUnits="userSpaceOnUse" color-interpolation-filters="sRGB">
<feFlood flood-opacity="0" result="BackgroundImageFix"/>
<feBlend mode="normal" in="SourceGraphic" in2="BackgroundImageFix" result="shape"/>
<feColorMatrix in="SourceAlpha" type="matrix" values="0 0 0 0 0 0 0 0 0 0 0 0 0 0 0 0 0 0 127 0" result="hardAlpha"/>
<feOffset dx="4" dy="4"/>
<feGaussianBlur stdDeviation="1.5"/>
<feComposite in2="hardAlpha" operator="arithmetic" k2="-1" k3="1"/>
<feColorMatrix type="matrix" values="0 0 0 0 0.166667 0 0 0 0 0.166667 0 0 0 0 0.166667 0 0 0 0.25 0"/>
<feBlend mode="normal" in2="shape" result="effect1_innerShadow_480_76"/>
</filter>
<radialGradient id="paint0_radial_480_76" cx="0" cy="0" r="1" gradientUnits="userSpaceOnUse" gradientTransform="translate(50 50) rotate(104.074) scale(54.0139)">
<stop offset="0.258134" stop-color="#4942E4"/>
<stop offset="1" stop-color="#11009E"/>
</radialGradient>
<clipPath id="clip0_480_76">
<rect width="100" height="100" rx="8" fill="white"/>
</clipPath>
</defs>
</svg>
